<?xml version="1.0" encoding="UTF-8" standalone="no"?>
<svg
   width="168.82925pt"
   height="165.56113pt"
   viewBox="0 0 168.82926 165.56113"
   version="1.1"
   id="svg3357"
   sodipodi:docname="lvl1_omni.svg"
   inkscape:version="1.2.2 (1:1.2.2+202212051550+b0a8486541)"
   xmlns:inkscape="http://www.inkscape.org/namespaces/inkscape"
   xmlns:sodipodi="http://sodipodi.sourceforge.net/DTD/sodipodi-0.dtd"
   xmlns:xlink="http://www.w3.org/1999/xlink"
   xmlns="http://www.w3.org/2000/svg"
   xmlns:svg="http://www.w3.org/2000/svg"
   xmlns:rdf="http://www.w3.org/1999/02/22-rdf-syntax-ns#"
   xmlns:cc="http://creativecommons.org/ns#"
   xmlns:dc="http://purl.org/dc/elements/1.1/">
  <sodipodi:namedview
     id="namedview3359"
     pagecolor="#ffffff"
     bordercolor="#000000"
     borderopacity="0.25"
     inkscape:showpageshadow="2"
     inkscape:pageopacity="0.0"
     inkscape:pagecheckerboard="0"
     inkscape:deskcolor="#d1d1d1"
     inkscape:document-units="pt"
     showgrid="false"
     inkscape:zoom="3.3796297"
     inkscape:cx="115.84109"
     inkscape:cy="99.27123"
     inkscape:window-width="1848"
     inkscape:window-height="1016"
     inkscape:window-x="72"
     inkscape:window-y="27"
     inkscape:window-maximized="1"
     inkscape:current-layer="svg3357" />
  <metadata
     id="metadata3067">
    <rdf:RDF>
      <cc:Work>
        <dc:type
           rdf:resource="http://purl.org/dc/dcmitype/StillImage" />
        <dc:date>2023-05-12T08:54:00.106587</dc:date>
        <dc:format>image/svg+xml</dc:format>
        <dc:creator>
          <cc:Agent>
            <dc:title>Matplotlib v3.7.0, https://matplotlib.org/</dc:title>
          </cc:Agent>
        </dc:creator>
      </cc:Work>
    </rdf:RDF>
  </metadata>
  <defs
     id="defs3071">
    <style
       type="text/css"
       id="style3069">*{stroke-linejoin: round; stroke-linecap: butt}</style>
  </defs>
  <g
     id="axes_1"
     transform="translate(-6.04475,-22.928)">
    <g
       id="patch_2">
      <path
         d="M 24.786,173.016 H 174.474 V 23.328 H 24.786 Z"
         style="fill:#ffffff"
         id="path3076" />
    </g>
    <g
       id="PathCollection_1">
      <defs
         id="defs3080">
        <path
           id="C0_0_e77c76d128"
           d="M 0,3 C 0.795609,3 1.55874,2.683901 2.12132,2.12132 2.683901,1.55874 3,0.795609 3,0 3,-0.795609 2.683901,-1.55874 2.12132,-2.12132 1.55874,-2.683901 0.795609,-3 0,-3 -0.795609,-3 -1.55874,-2.683901 -2.12132,-2.12132 -2.683901,-1.55874 -3,-0.795609 -3,0 -3,0.795609 -2.683901,1.55874 -2.12132,2.12132 -1.55874,2.683901 -0.795609,3 0,3 Z" />
      </defs>
      <g
         clip-path="url(#p33665c1442)"
         id="g3084">
        <use
           xlink:href="#C0_0_e77c76d128"
           x="78.414177"
           y="111.78"
           style="fill:#1f77b4"
           id="use3082" />
      </g>
      <g
         clip-path="url(#p33665c1442)"
         id="g3088">
        <use
           xlink:href="#C0_0_e77c76d128"
           x="105.62553"
           y="78.950867"
           style="fill:#1f77b4"
           id="use3086" />
      </g>
      <g
         clip-path="url(#p33665c1442)"
         id="g3092">
        <use
           xlink:href="#C0_0_e77c76d128"
           x="31.59"
           y="134.47296"
           style="fill:#1f77b4"
           id="use3090" />
      </g>
      <g
         clip-path="url(#p33665c1442)"
         id="g3096">
        <use
           xlink:href="#C0_0_e77c76d128"
           x="81.773819"
           y="116.02818"
           style="fill:#1f77b4"
           id="use3094" />
      </g>
      <g
         clip-path="url(#p33665c1442)"
         id="g3100">
        <use
           xlink:href="#C0_0_e77c76d128"
           x="99.793098"
           y="89.813049"
           style="fill:#1f77b4"
           id="use3098" />
      </g>
      <g
         clip-path="url(#p33665c1442)"
         id="g3104">
        <use
           xlink:href="#C0_0_e77c76d128"
           x="104.82076"
           y="95.450401"
           style="fill:#1f77b4"
           id="use3102" />
      </g>
      <g
         clip-path="url(#p33665c1442)"
         id="g3108">
        <use
           xlink:href="#C0_0_e77c76d128"
           x="148.46046"
           y="62.21981"
           style="fill:#1f77b4"
           id="use3106" />
      </g>
      <g
         clip-path="url(#p33665c1442)"
         id="g3112">
        <use
           xlink:href="#C0_0_e77c76d128"
           x="124.76257"
           y="100.66719"
           style="fill:#1f77b4"
           id="use3110" />
      </g>
      <g
         clip-path="url(#p33665c1442)"
         id="g3116">
        <use
           xlink:href="#C0_0_e77c76d128"
           x="39.287849"
           y="135.42061"
           style="fill:#1f77b4"
           id="use3114" />
      </g>
      <g
         clip-path="url(#p33665c1442)"
         id="g3120">
        <use
           xlink:href="#C0_0_e77c76d128"
           x="128.50342"
           y="68.083321"
           style="fill:#1f77b4"
           id="use3118" />
      </g>
      <g
         clip-path="url(#p33665c1442)"
         id="g3124">
        <use
           xlink:href="#C0_0_e77c76d128"
           x="51.215736"
           y="136.89948"
           style="fill:#1f77b4"
           id="use3122" />
      </g>
      <g
         clip-path="url(#p33665c1442)"
         id="g3128">
        <use
           xlink:href="#C0_0_e77c76d128"
           x="83.228729"
           y="126.96053"
           style="fill:#1f77b4"
           id="use3126" />
      </g>
      <g
         clip-path="url(#p33665c1442)"
         id="g3132">
        <use
           xlink:href="#C0_0_e77c76d128"
           x="63.329037"
           y="166.21201"
           style="fill:#1f77b4"
           id="use3130" />
      </g>
      <g
         clip-path="url(#p33665c1442)"
         id="g3136">
        <use
           xlink:href="#C0_0_e77c76d128"
           x="153.91071"
           y="54.526871"
           style="fill:#1f77b4"
           id="use3134" />
      </g>
      <g
         clip-path="url(#p33665c1442)"
         id="g3140">
        <use
           xlink:href="#C0_0_e77c76d128"
           x="66.443481"
           y="154.04063"
           style="fill:#1f77b4"
           id="use3138" />
      </g>
      <g
         clip-path="url(#p33665c1442)"
         id="g3144">
        <use
           xlink:href="#C0_0_e77c76d128"
           x="75.47448"
           y="138.996"
           style="fill:#1f77b4"
           id="use3142" />
      </g>
      <g
         clip-path="url(#p33665c1442)"
         id="g3148">
        <use
           xlink:href="#C0_0_e77c76d128"
           x="66.015816"
           y="138.45702"
           style="fill:#1f77b4"
           id="use3146" />
      </g>
      <g
         clip-path="url(#p33665c1442)"
         id="g3152">
        <use
           xlink:href="#C0_0_e77c76d128"
           x="59.344986"
           y="155.32561"
           style="fill:#1f77b4"
           id="use3150" />
      </g>
      <g
         clip-path="url(#p33665c1442)"
         id="g3156">
        <use
           xlink:href="#C0_0_e77c76d128"
           x="64.249199"
           y="134.47296"
           style="fill:#1f77b4"
           id="use3154" />
      </g>
      <g
         clip-path="url(#p33665c1442)"
         id="g3160">
        <use
           xlink:href="#C0_0_e77c76d128"
           x="66.015816"
           y="158.51414"
           style="fill:#1f77b4"
           id="use3158" />
      </g>
    </g>
    <g
       id="PathCollection_2" />
    <g
       id="matplotlib.axis_1">
      <g
         id="xtick_1">
        <g
           id="line2d_1">
          <defs
             id="defs3165">
            <path
               id="mc36ca69e88"
               d="M 0,0 V 3.5"
               style="stroke:#000000;stroke-width:0.8" />
          </defs>
          <g
             id="g3169">
            <use
               xlink:href="#mc36ca69e88"
               x="31.59"
               y="173.01601"
               style="stroke:#000000;stroke-width:0.8"
               id="use3167" />
          </g>
        </g>
        <g
           id="text_1">
          <!-- 0 -->
          <g
             transform="matrix(0.12,0,0,-0.12,28.59,188.3485)"
             id="g3177">
            <defs
               id="defs3173">
              <path
                 id="TimesNewRomanPSMT-30"
                 d="m 231,2094 q 0,725 219,1248 219,524 581,780 282,203 582,203 487,0 875,-497 484,-615 484,-1669 0,-737 -213,-1253 Q 2547,391 2217,158 1888,-75 1581,-75 975,-75 572,641 231,1244 231,2094 Z m 613,-78 q 0,-875 215,-1428 179,-466 532,-466 168,0 349,151 182,152 276,508 143,538 143,1516 0,725 -150,1209 -112,360 -290,510 -128,103 -310,103 -212,0 -378,-191 -225,-259 -306,-816 -81,-556 -81,-1096 z"
                 transform="scale(0.015625)" />
            </defs>
            <use
               xlink:href="#TimesNewRomanPSMT-30"
               id="use3175" />
          </g>
        </g>
      </g>
      <g
         id="xtick_2">
        <g
           id="line2d_2">
          <g
             id="g3183">
            <use
               xlink:href="#mc36ca69e88"
               x="58.806"
               y="173.01601"
               style="stroke:#000000;stroke-width:0.8"
               id="use3181" />
          </g>
        </g>
        <g
           id="text_2">
          <!-- 5 -->
          <g
             transform="matrix(0.12,0,0,-0.12,55.806,188.3485)"
             id="g3191">
            <defs
               id="defs3187">
              <path
                 id="TimesNewRomanPSMT-35"
                 d="M 2778,4238 2534,3706 H 1259 L 981,3138 q 828,-122 1313,-616 415,-425 415,-1000 0,-334 -136,-619 Q 2438,619 2231,419 2025,219 1772,97 1413,-75 1034,-75 653,-75 479,54 306,184 306,341 q 0,87 72,154 72,68 181,68 82,0 143,-25 61,-25 207,-129 235,-162 475,-162 366,0 642,276 277,277 277,674 0,384 -247,717 -247,333 -681,514 -341,141 -928,163 l 812,1647 z"
                 transform="scale(0.015625)" />
            </defs>
            <use
               xlink:href="#TimesNewRomanPSMT-35"
               id="use3189" />
          </g>
        </g>
      </g>
      <g
         id="xtick_3">
        <g
           id="line2d_3">
          <g
             id="g3197">
            <use
               xlink:href="#mc36ca69e88"
               x="86.022003"
               y="173.01601"
               style="stroke:#000000;stroke-width:0.8"
               id="use3195" />
          </g>
        </g>
        <g
           id="text_3">
          <!-- 10 -->
          <g
             transform="matrix(0.12,0,0,-0.12,80.022,188.3485)"
             id="g3207">
            <defs
               id="defs3201">
              <path
                 id="TimesNewRomanPSMT-31"
                 d="m 750,3822 1031,503 h 103 V 747 q 0,-356 30,-444 30,-87 123,-134 94,-47 382,-53 V 0 H 825 v 116 q 300,6 387,51 88,46 122,122 35,77 35,458 v 2287 q 0,463 -31,594 -22,100 -80,147 -58,47 -139,47 -116,0 -322,-97 z"
                 transform="scale(0.015625)" />
            </defs>
            <use
               xlink:href="#TimesNewRomanPSMT-31"
               id="use3203" />
            <use
               xlink:href="#TimesNewRomanPSMT-30"
               x="50"
               id="use3205" />
          </g>
        </g>
      </g>
      <g
         id="xtick_4">
        <g
           id="line2d_4">
          <g
             id="g3213">
            <use
               xlink:href="#mc36ca69e88"
               x="113.238"
               y="173.01601"
               style="stroke:#000000;stroke-width:0.8"
               id="use3211" />
          </g>
        </g>
        <g
           id="text_4">
          <!-- 15 -->
          <g
             transform="matrix(0.12,0,0,-0.12,107.238,188.3485)"
             id="g3220">
            <use
               xlink:href="#TimesNewRomanPSMT-31"
               id="use3216" />
            <use
               xlink:href="#TimesNewRomanPSMT-35"
               x="50"
               id="use3218" />
          </g>
        </g>
      </g>
      <g
         id="xtick_5">
        <g
           id="line2d_5">
          <g
             id="g3226">
            <use
               xlink:href="#mc36ca69e88"
               x="140.45399"
               y="173.01601"
               style="stroke:#000000;stroke-width:0.8"
               id="use3224" />
          </g>
        </g>
        <g
           id="text_5">
          <!-- 20 -->
          <g
             transform="matrix(0.12,0,0,-0.12,134.454,188.3485)"
             id="g3236">
            <defs
               id="defs3230">
              <path
                 id="TimesNewRomanPSMT-32"
                 d="M 2934,816 2638,0 H 138 v 116 q 1103,1006 1553,1643 450,638 450,1166 0,403 -247,662 -247,260 -591,260 -312,0 -561,-183 Q 494,3481 375,3128 H 259 q 79,578 402,887 323,310 808,310 515,0 860,-331 346,-331 346,-781 0,-322 -150,-644 Q 2294,2063 1775,1497 997,647 803,472 h 1106 q 338,0 474,25 136,25 245,101 110,77 191,218 z"
                 transform="scale(0.015625)" />
            </defs>
            <use
               xlink:href="#TimesNewRomanPSMT-32"
               id="use3232" />
            <use
               xlink:href="#TimesNewRomanPSMT-30"
               x="50"
               id="use3234" />
          </g>
        </g>
      </g>
      <g
         id="xtick_6">
        <g
           id="line2d_6">
          <g
             id="g3242">
            <use
               xlink:href="#mc36ca69e88"
               x="167.67"
               y="173.01601"
               style="stroke:#000000;stroke-width:0.8"
               id="use3240" />
          </g>
        </g>
        <g
           id="text_6">
          <!-- 25 -->
          <g
             transform="matrix(0.12,0,0,-0.12,161.67,188.3485)"
             id="g3249">
            <use
               xlink:href="#TimesNewRomanPSMT-32"
               id="use3245" />
            <use
               xlink:href="#TimesNewRomanPSMT-35"
               x="50"
               id="use3247" />
          </g>
        </g>
      </g>
    </g>
    <g
       id="matplotlib.axis_2">
      <g
         id="ytick_1">
        <g
           id="line2d_7">
          <defs
             id="defs3255">
            <path
               id="ma54d52990b"
               d="M 0,0 H -3.5"
               style="stroke:#000000;stroke-width:0.8" />
          </defs>
          <g
             id="g3259">
            <use
               xlink:href="#ma54d52990b"
               x="24.785999"
               y="166.21201"
               style="stroke:#000000;stroke-width:0.8"
               id="use3257" />
          </g>
        </g>
        <g
           id="text_7">
          <!-- 0 -->
          <g
             transform="matrix(0.12,0,0,-0.12,11.786,170.37825)"
             id="g3264">
            <use
               xlink:href="#TimesNewRomanPSMT-30"
               id="use3262" />
          </g>
        </g>
      </g>
      <g
         id="ytick_2">
        <g
           id="line2d_8">
          <g
             id="g3270">
            <use
               xlink:href="#ma54d52990b"
               x="24.785999"
               y="138.996"
               style="stroke:#000000;stroke-width:0.8"
               id="use3268" />
          </g>
        </g>
        <g
           id="text_8">
          <!-- 5 -->
          <g
             transform="matrix(0.12,0,0,-0.12,11.786,143.16225)"
             id="g3275">
            <use
               xlink:href="#TimesNewRomanPSMT-35"
               id="use3273" />
          </g>
        </g>
      </g>
      <g
         id="ytick_3">
        <g
           id="line2d_9">
          <g
             id="g3281">
            <use
               xlink:href="#ma54d52990b"
               x="24.785999"
               y="111.78"
               style="stroke:#000000;stroke-width:0.8"
               id="use3279" />
          </g>
        </g>
        <g
           id="text_9">
          <!-- 10 -->
          <g
             transform="matrix(0.12,0,0,-0.12,5.786,115.94625)"
             id="g3288">
            <use
               xlink:href="#TimesNewRomanPSMT-31"
               id="use3284" />
            <use
               xlink:href="#TimesNewRomanPSMT-30"
               x="50"
               id="use3286" />
          </g>
        </g>
      </g>
      <g
         id="ytick_4">
        <g
           id="line2d_10">
          <g
             id="g3294">
            <use
               xlink:href="#ma54d52990b"
               x="24.785999"
               y="84.564003"
               style="stroke:#000000;stroke-width:0.8"
               id="use3292" />
          </g>
        </g>
        <g
           id="text_10">
          <!-- 15 -->
          <g
             transform="matrix(0.12,0,0,-0.12,5.786,88.73025)"
             id="g3301">
            <use
               xlink:href="#TimesNewRomanPSMT-31"
               id="use3297" />
            <use
               xlink:href="#TimesNewRomanPSMT-35"
               x="50"
               id="use3299" />
          </g>
        </g>
      </g>
      <g
         id="ytick_5">
        <g
           id="line2d_11">
          <g
             id="g3307">
            <use
               xlink:href="#ma54d52990b"
               x="24.785999"
               y="57.348"
               style="stroke:#000000;stroke-width:0.8"
               id="use3305" />
          </g>
        </g>
        <g
           id="text_11">
          <!-- 20 -->
          <g
             transform="matrix(0.12,0,0,-0.12,5.786,61.51425)"
             id="g3314">
            <use
               xlink:href="#TimesNewRomanPSMT-32"
               id="use3310" />
            <use
               xlink:href="#TimesNewRomanPSMT-30"
               x="50"
               id="use3312" />
          </g>
        </g>
      </g>
      <g
         id="ytick_6">
        <g
           id="line2d_12">
          <g
             id="g3320">
            <use
               xlink:href="#ma54d52990b"
               x="24.785999"
               y="30.132"
               style="stroke:#000000;stroke-width:0.8"
               id="use3318" />
          </g>
        </g>
        <g
           id="text_12">
          <!-- 25 -->
          <g
             transform="matrix(0.12,0,0,-0.12,5.786,34.29825)"
             id="g3327">
            <use
               xlink:href="#TimesNewRomanPSMT-32"
               id="use3323" />
            <use
               xlink:href="#TimesNewRomanPSMT-35"
               x="50"
               id="use3325" />
          </g>
        </g>
      </g>
    </g>
    <g
       id="LineCollection_1">
      <path
         d="M 76.931856,166.212 V 30.132"
         clip-path="url(#p33665c1442)"
         style="fill:none;stroke:#d62728;stroke-width:1.5;stroke-dasharray:5.55, 2.4;stroke-dashoffset:0"
         id="path3332" />
    </g>
    <g
       id="LineCollection_2">
      <path
         d="M 31.59,138.72384 H 167.67"
         clip-path="url(#p33665c1442)"
         style="fill:none;stroke:#000000;stroke-width:1.5;stroke-dasharray:5.55, 2.4;stroke-dashoffset:0"
         id="path3335" />
    </g>
    <g
       id="patch_3">
      <path
         d="M 24.786,173.016 V 23.328"
         style="fill:none;stroke:#000000;stroke-width:0.8;stroke-linecap:square;stroke-linejoin:miter"
         id="path3338" />
    </g>
    <g
       id="patch_4">
      <path
         d="M 174.474,173.016 V 23.328"
         style="fill:none;stroke:#000000;stroke-width:0.8;stroke-linecap:square;stroke-linejoin:miter"
         id="path3341" />
    </g>
    <g
       id="patch_5">
      <path
         d="M 24.786,173.016 H 174.474"
         style="fill:none;stroke:#000000;stroke-width:0.8;stroke-linecap:square;stroke-linejoin:miter"
         id="path3344" />
    </g>
    <g
       id="patch_6">
      <path
         d="M 24.786,23.328 H 174.474"
         style="fill:none;stroke:#000000;stroke-width:0.8;stroke-linecap:square;stroke-linejoin:miter"
         id="path3347" />
    </g>
  </g>
  <defs
     id="defs3355">
    <clipPath
       id="p33665c1442">
      <rect
         x="24.785999"
         y="23.327999"
         width="149.688"
         height="149.688"
         id="rect3352" />
    </clipPath>
  </defs>
</svg>
