<?xml version="1.0" encoding="utf-8" standalone="no"?>
<!DOCTYPE svg PUBLIC "-//W3C//DTD SVG 1.1//EN"
  "http://www.w3.org/Graphics/SVG/1.1/DTD/svg11.dtd">
<svg xmlns:xlink="http://www.w3.org/1999/xlink" width="216pt" height="216pt" viewBox="0 0 216 216" xmlns="http://www.w3.org/2000/svg" version="1.1">
 <metadata>
  <rdf:RDF xmlns:dc="http://purl.org/dc/elements/1.1/" xmlns:cc="http://creativecommons.org/ns#" xmlns:rdf="http://www.w3.org/1999/02/22-rdf-syntax-ns#">
   <cc:Work>
    <dc:type rdf:resource="http://purl.org/dc/dcmitype/StillImage"/>
    <dc:date>2023-02-24T15:03:29.394984</dc:date>
    <dc:format>image/svg+xml</dc:format>
    <dc:creator>
     <cc:Agent>
      <dc:title>Matplotlib v3.5.1, https://matplotlib.org/</dc:title>
     </cc:Agent>
    </dc:creator>
   </cc:Work>
  </rdf:RDF>
 </metadata>
 <defs>
  <style type="text/css">*{stroke-linejoin: round; stroke-linecap: butt}</style>
 </defs>
 <g id="figure_1">
  <g id="patch_1">
   <path d="M 0 216 
L 216 216 
L 216 0 
L 0 0 
L 0 216 
z
" style="fill: none"/>
  </g>
  <g id="axes_1">
   <g id="patch_2">
    <path d="M 27 187.165227 
L 194.4 187.165227 
L 194.4 27.754773 
L 27 27.754773 
z
" style="fill: #ffffff"/>
   </g>
   <g id="PathCollection_1">
    <defs>
     <path id="C0_0_7000279d3a" d="M 0 3 
C 0.795609 3 1.55874 2.683901 2.12132 2.12132 
C 2.683901 1.55874 3 0.795609 3 -0 
C 3 -0.795609 2.683901 -1.55874 2.12132 -2.12132 
C 1.55874 -2.683901 0.795609 -3 0 -3 
C -0.795609 -3 -1.55874 -2.683901 -2.12132 -2.12132 
C -2.683901 -1.55874 -3 -0.795609 -3 0 
C -3 0.795609 -2.683901 1.55874 -2.12132 2.12132 
C -1.55874 2.683901 -0.795609 3 0 3 
z
"/>
    </defs>
    <g clip-path="url(#pe117f43b88)">
     <use xlink:href="#C0_0_7000279d3a" x="133.527273" y="141.891136" style="fill: #1f77b4; stroke: #ffffff; stroke-width: 0.48"/>
    </g>
    <g clip-path="url(#pe117f43b88)">
     <use xlink:href="#C0_0_7000279d3a" x="179.181818" y="149.500227" style="fill: #1f77b4; stroke: #ffffff; stroke-width: 0.48"/>
    </g>
    <g clip-path="url(#pe117f43b88)">
     <use xlink:href="#C0_0_7000279d3a" x="80.263636" y="179.936591" style="fill: #1f77b4; stroke: #ffffff; stroke-width: 0.48"/>
    </g>
    <g clip-path="url(#pe117f43b88)">
     <use xlink:href="#C0_0_7000279d3a" x="125.918182" y="126.672955" style="fill: #1f77b4; stroke: #ffffff; stroke-width: 0.48"/>
    </g>
    <g clip-path="url(#pe117f43b88)">
     <use xlink:href="#C0_0_7000279d3a" x="163.963636" y="134.282045" style="fill: #1f77b4; stroke: #ffffff; stroke-width: 0.48"/>
    </g>
    <g clip-path="url(#pe117f43b88)">
     <use xlink:href="#C0_0_7000279d3a" x="148.745455" y="103.845682" style="fill: #1f77b4; stroke: #ffffff; stroke-width: 0.48"/>
    </g>
    <g clip-path="url(#pe117f43b88)">
     <use xlink:href="#C0_0_7000279d3a" x="156.354545" y="35.363864" style="fill: #1f77b4; stroke: #ffffff; stroke-width: 0.48"/>
    </g>
    <g clip-path="url(#pe117f43b88)">
     <use xlink:href="#C0_0_7000279d3a" x="65.045455" y="50.582045" style="fill: #1f77b4; stroke: #ffffff; stroke-width: 0.48"/>
    </g>
    <g clip-path="url(#pe117f43b88)">
     <use xlink:href="#C0_0_7000279d3a" x="87.872727" y="172.3275" style="fill: #d62728; stroke: #ffffff; stroke-width: 0.48"/>
    </g>
    <g clip-path="url(#pe117f43b88)">
     <use xlink:href="#C0_0_7000279d3a" x="186.790909" y="96.236591" style="fill: #1f77b4; stroke: #ffffff; stroke-width: 0.48"/>
    </g>
    <g clip-path="url(#pe117f43b88)">
     <use xlink:href="#C0_0_7000279d3a" x="95.481818" y="157.109318" style="fill: #1f77b4; stroke: #ffffff; stroke-width: 0.48"/>
    </g>
    <g clip-path="url(#pe117f43b88)">
     <use xlink:href="#C0_0_7000279d3a" x="103.090909" y="111.454773" style="fill: #1f77b4; stroke: #ffffff; stroke-width: 0.48"/>
    </g>
    <g clip-path="url(#pe117f43b88)">
     <use xlink:href="#C0_0_7000279d3a" x="57.436364" y="141.891136" style="fill: #1f77b4; stroke: #ffffff; stroke-width: 0.48"/>
    </g>
    <g clip-path="url(#pe117f43b88)">
     <use xlink:href="#C0_0_7000279d3a" x="171.572727" y="35.363864" style="fill: #1f77b4; stroke: #ffffff; stroke-width: 0.48"/>
    </g>
    <g clip-path="url(#pe117f43b88)">
     <use xlink:href="#C0_0_7000279d3a" x="42.218182" y="149.500227" style="fill: #d62728; stroke: #ffffff; stroke-width: 0.48"/>
    </g>
    <g clip-path="url(#pe117f43b88)">
     <use xlink:href="#C0_0_7000279d3a" x="87.872727" y="119.063864" style="fill: #1f77b4; stroke: #ffffff; stroke-width: 0.48"/>
    </g>
    <g clip-path="url(#pe117f43b88)">
     <use xlink:href="#C0_0_7000279d3a" x="95.481818" y="134.282045" style="fill: #1f77b4; stroke: #ffffff; stroke-width: 0.48"/>
    </g>
    <g clip-path="url(#pe117f43b88)">
     <use xlink:href="#C0_0_7000279d3a" x="72.654545" y="141.891136" style="fill: #1f77b4; stroke: #ffffff; stroke-width: 0.48"/>
    </g>
    <g clip-path="url(#pe117f43b88)">
     <use xlink:href="#C0_0_7000279d3a" x="34.609091" y="179.936591" style="fill: #1f77b4; stroke: #ffffff; stroke-width: 0.48"/>
    </g>
    <g clip-path="url(#pe117f43b88)">
     <use xlink:href="#C0_0_7000279d3a" x="65.045455" y="134.282045" style="fill: #1f77b4; stroke: #ffffff; stroke-width: 0.48"/>
    </g>
   </g>
   <g id="PathCollection_2"/>
   <g id="PathCollection_3"/>
   <g id="patch_3">
    <path d="M 87.872727 229.471773 
C 103.027566 229.471773 117.563741 223.450692 128.27983 212.734603 
C 138.995919 202.018514 145.017 187.482338 145.017 172.3275 
C 145.017 157.172662 138.995919 142.636486 128.27983 131.920397 
C 117.563741 121.204308 103.027566 115.183227 87.872727 115.183227 
C 72.717889 115.183227 58.181713 121.204308 47.465625 131.920397 
C 36.749536 142.636486 30.728455 157.172662 30.728455 172.3275 
C 30.728455 187.482338 36.749536 202.018514 47.465625 212.734603 
C 58.181713 223.450692 72.717889 229.471773 87.872727 229.471773 
" clip-path="url(#pe117f43b88)" style="fill: none; stroke: #ffa500; stroke-linejoin: miter"/>
   </g>
   <g id="patch_4">
    <path d="M 42.218182 198.198409 
C 55.133091 198.198409 67.520777 193.067261 76.652996 183.935042 
C 85.785216 174.802822 90.916364 162.415136 90.916364 149.500227 
C 90.916364 136.585318 85.785216 124.197632 76.652996 115.065413 
C 67.520777 105.933193 55.133091 100.802045 42.218182 100.802045 
C 29.303273 100.802045 16.915587 105.933193 7.783367 115.065413 
C -1.348852 124.197632 -6.48 136.585318 -6.48 149.500227 
C -6.48 162.415136 -1.348852 174.802822 7.783367 183.935042 
C 16.915587 193.067261 29.303273 198.198409 42.218182 198.198409 
L 42.218182 198.198409 
z
" clip-path="url(#pe117f43b88)" style="fill: none; stroke: #800080; stroke-linejoin: miter"/>
   </g>
   <g id="patch_5">
    <path d="M 42.218182 272.158773 
C 74.747608 272.158773 105.949093 259.234695 128.950871 236.232917 
C 151.952649 213.231138 164.876727 182.029654 164.876727 149.500227 
C 164.876727 116.970801 151.952649 85.769316 128.950871 62.767538 
C 105.949093 39.76576 74.747608 26.841682 42.218182 26.841682 
C 9.688755 26.841682 -21.512729 39.76576 -44.514507 62.767538 
C -67.516286 85.769316 -80.440364 116.970801 -80.440364 149.500227 
C -80.440364 182.029654 -67.516286 213.231138 -44.514507 236.232917 
C -21.512729 259.234695 9.688755 272.158773 42.218182 272.158773 
" clip-path="url(#pe117f43b88)" style="fill: none; stroke: #800080; stroke-linejoin: miter"/>
   </g>
   <g id="matplotlib.axis_1">
    <g id="xtick_1">
     <g id="line2d_1">
      <defs>
       <path id="mf63cfe6ff9" d="M 0 0 
L 0 3.5 
" style="stroke: #000000; stroke-width: 0.8"/>
      </defs>
      <g>
       <use xlink:href="#mf63cfe6ff9" x="34.609091" y="187.165227" style="stroke: #000000; stroke-width: 0.8"/>
      </g>
     </g>
     <g id="text_1">
      <!-- 0 -->
      <g transform="translate(31.609091 202.497727)scale(0.12 -0.12)">
       <defs>
        <path id="TimesNewRomanPSMT-30" d="M 231 2094 
Q 231 2819 450 3342 
Q 669 3866 1031 4122 
Q 1313 4325 1613 4325 
Q 2100 4325 2488 3828 
Q 2972 3213 2972 2159 
Q 2972 1422 2759 906 
Q 2547 391 2217 158 
Q 1888 -75 1581 -75 
Q 975 -75 572 641 
Q 231 1244 231 2094 
z
M 844 2016 
Q 844 1141 1059 588 
Q 1238 122 1591 122 
Q 1759 122 1940 273 
Q 2122 425 2216 781 
Q 2359 1319 2359 2297 
Q 2359 3022 2209 3506 
Q 2097 3866 1919 4016 
Q 1791 4119 1609 4119 
Q 1397 4119 1231 3928 
Q 1006 3669 925 3112 
Q 844 2556 844 2016 
z
" transform="scale(0.015625)"/>
       </defs>
       <use xlink:href="#TimesNewRomanPSMT-30"/>
      </g>
     </g>
    </g>
    <g id="xtick_2">
     <g id="line2d_2">
      <g>
       <use xlink:href="#mf63cfe6ff9" x="110.7" y="187.165227" style="stroke: #000000; stroke-width: 0.8"/>
      </g>
     </g>
     <g id="text_2">
      <!-- 10 -->
      <g transform="translate(104.7 202.497727)scale(0.12 -0.12)">
       <defs>
        <path id="TimesNewRomanPSMT-31" d="M 750 3822 
L 1781 4325 
L 1884 4325 
L 1884 747 
Q 1884 391 1914 303 
Q 1944 216 2037 169 
Q 2131 122 2419 116 
L 2419 0 
L 825 0 
L 825 116 
Q 1125 122 1212 167 
Q 1300 213 1334 289 
Q 1369 366 1369 747 
L 1369 3034 
Q 1369 3497 1338 3628 
Q 1316 3728 1258 3775 
Q 1200 3822 1119 3822 
Q 1003 3822 797 3725 
L 750 3822 
z
" transform="scale(0.015625)"/>
       </defs>
       <use xlink:href="#TimesNewRomanPSMT-31"/>
       <use xlink:href="#TimesNewRomanPSMT-30" x="50"/>
      </g>
     </g>
    </g>
    <g id="xtick_3">
     <g id="line2d_3">
      <g>
       <use xlink:href="#mf63cfe6ff9" x="186.790909" y="187.165227" style="stroke: #000000; stroke-width: 0.8"/>
      </g>
     </g>
     <g id="text_3">
      <!-- 20 -->
      <g transform="translate(180.790909 202.497727)scale(0.12 -0.12)">
       <defs>
        <path id="TimesNewRomanPSMT-32" d="M 2934 816 
L 2638 0 
L 138 0 
L 138 116 
Q 1241 1122 1691 1759 
Q 2141 2397 2141 2925 
Q 2141 3328 1894 3587 
Q 1647 3847 1303 3847 
Q 991 3847 742 3664 
Q 494 3481 375 3128 
L 259 3128 
Q 338 3706 661 4015 
Q 984 4325 1469 4325 
Q 1984 4325 2329 3994 
Q 2675 3663 2675 3213 
Q 2675 2891 2525 2569 
Q 2294 2063 1775 1497 
Q 997 647 803 472 
L 1909 472 
Q 2247 472 2383 497 
Q 2519 522 2628 598 
Q 2738 675 2819 816 
L 2934 816 
z
" transform="scale(0.015625)"/>
       </defs>
       <use xlink:href="#TimesNewRomanPSMT-32"/>
       <use xlink:href="#TimesNewRomanPSMT-30" x="50"/>
      </g>
     </g>
    </g>
   </g>
   <g id="matplotlib.axis_2">
    <g id="ytick_1">
     <g id="line2d_4">
      <defs>
       <path id="mcafad7f68b" d="M 0 0 
L -3.5 0 
" style="stroke: #000000; stroke-width: 0.8"/>
      </defs>
      <g>
       <use xlink:href="#mcafad7f68b" x="27" y="179.936591" style="stroke: #000000; stroke-width: 0.8"/>
      </g>
     </g>
     <g id="text_4">
      <!-- 0 -->
      <g transform="translate(14 184.102841)scale(0.12 -0.12)">
       <use xlink:href="#TimesNewRomanPSMT-30"/>
      </g>
     </g>
    </g>
    <g id="ytick_2">
     <g id="line2d_5">
      <g>
       <use xlink:href="#mcafad7f68b" x="27" y="103.845682" style="stroke: #000000; stroke-width: 0.8"/>
      </g>
     </g>
     <g id="text_5">
      <!-- 10 -->
      <g transform="translate(8 108.011932)scale(0.12 -0.12)">
       <use xlink:href="#TimesNewRomanPSMT-31"/>
       <use xlink:href="#TimesNewRomanPSMT-30" x="50"/>
      </g>
     </g>
    </g>
    <g id="ytick_3">
     <g id="line2d_6">
      <g>
       <use xlink:href="#mcafad7f68b" x="27" y="27.754773" style="stroke: #000000; stroke-width: 0.8"/>
      </g>
     </g>
     <g id="text_6">
      <!-- 20 -->
      <g transform="translate(8 31.921023)scale(0.12 -0.12)">
       <use xlink:href="#TimesNewRomanPSMT-32"/>
       <use xlink:href="#TimesNewRomanPSMT-30" x="50"/>
      </g>
     </g>
    </g>
   </g>
   <g id="patch_6">
    <path d="M 27 187.165227 
L 27 27.754773 
" style="fill: none; stroke: #000000; stroke-width: 0.8; stroke-linejoin: miter; stroke-linecap: square"/>
   </g>
   <g id="patch_7">
    <path d="M 194.4 187.165227 
L 194.4 27.754773 
" style="fill: none; stroke: #000000; stroke-width: 0.8; stroke-linejoin: miter; stroke-linecap: square"/>
   </g>
   <g id="patch_8">
    <path d="M 27 187.165227 
L 194.4 187.165227 
" style="fill: none; stroke: #000000; stroke-width: 0.8; stroke-linejoin: miter; stroke-linecap: square"/>
   </g>
   <g id="patch_9">
    <path d="M 27 27.754773 
L 194.4 27.754773 
" style="fill: none; stroke: #000000; stroke-width: 0.8; stroke-linejoin: miter; stroke-linecap: square"/>
   </g>
  </g>
 </g>
 <defs>
  <clipPath id="pe117f43b88">
   <rect x="27" y="27.754773" width="167.4" height="159.410455"/>
  </clipPath>
 </defs>
</svg>
