<?xml version="1.0" encoding="utf-8" standalone="no"?>
<!DOCTYPE svg PUBLIC "-//W3C//DTD SVG 1.1//EN"
  "http://www.w3.org/Graphics/SVG/1.1/DTD/svg11.dtd">
<svg xmlns:xlink="http://www.w3.org/1999/xlink" width="216pt" height="216pt" viewBox="0 0 216 216" xmlns="http://www.w3.org/2000/svg" version="1.1">
 <metadata>
  <rdf:RDF xmlns:dc="http://purl.org/dc/elements/1.1/" xmlns:cc="http://creativecommons.org/ns#" xmlns:rdf="http://www.w3.org/1999/02/22-rdf-syntax-ns#">
   <cc:Work>
    <dc:type rdf:resource="http://purl.org/dc/dcmitype/StillImage"/>
    <dc:date>2023-03-10T20:26:09.622071</dc:date>
    <dc:format>image/svg+xml</dc:format>
    <dc:creator>
     <cc:Agent>
      <dc:title>Matplotlib v3.5.1, https://matplotlib.org/</dc:title>
     </cc:Agent>
    </dc:creator>
   </cc:Work>
  </rdf:RDF>
 </metadata>
 <defs>
  <style type="text/css">*{stroke-linejoin: round; stroke-linecap: butt}</style>
 </defs>
 <g id="figure_1">
  <g id="patch_1">
   <path d="M 0 216 
L 216 216 
L 216 0 
L 0 0 
L 0 216 
z
" style="fill: none"/>
  </g>
  <g id="axes_1">
   <g id="patch_2">
    <path d="M 29.00289 189 
L 192.39711 189 
L 192.39711 25.92 
L 29.00289 25.92 
z
" style="fill: #ffffff"/>
   </g>
   <g id="PathCollection_1">
    <defs>
     <path id="C0_0_9bc96de2bc" d="M 0 3 
C 0.795609 3 1.55874 2.683901 2.12132 2.12132 
C 2.683901 1.55874 3 0.795609 3 -0 
C 3 -0.795609 2.683901 -1.55874 2.12132 -2.12132 
C 1.55874 -2.683901 0.795609 -3 0 -3 
C -0.795609 -3 -1.55874 -2.683901 -2.12132 -2.12132 
C -2.683901 -1.55874 -3 -0.795609 -3 0 
C -3 0.795609 -2.683901 1.55874 -2.12132 2.12132 
C -1.55874 2.683901 -0.795609 3 0 3 
z
"/>
    </defs>
    <g clip-path="url(#p032bbfe5ed)">
     <use xlink:href="#C0_0_9bc96de2bc" x="116.984393" y="151.607861" style="fill: #d62728; stroke: #ffffff; stroke-width: 0.48"/>
    </g>
    <g clip-path="url(#p032bbfe5ed)">
     <use xlink:href="#C0_0_9bc96de2bc" x="154.690751" y="157.892254" style="fill: #d62728; stroke: #ffffff; stroke-width: 0.48"/>
    </g>
    <g clip-path="url(#p032bbfe5ed)">
     <use xlink:href="#C0_0_9bc96de2bc" x="72.993642" y="183.029827" style="fill: #d62728; stroke: #ffffff; stroke-width: 0.48"/>
    </g>
    <g clip-path="url(#p032bbfe5ed)">
     <use xlink:href="#C0_0_9bc96de2bc" x="110.7" y="139.039075" style="fill: #d62728; stroke: #ffffff; stroke-width: 0.48"/>
    </g>
    <g clip-path="url(#p032bbfe5ed)">
     <use xlink:href="#C0_0_9bc96de2bc" x="142.121965" y="145.323468" style="fill: #1f77b4; stroke: #ffffff; stroke-width: 0.48"/>
    </g>
    <g clip-path="url(#p032bbfe5ed)">
     <use xlink:href="#C0_0_9bc96de2bc" x="129.553179" y="120.185896" style="fill: #d62728; stroke: #ffffff; stroke-width: 0.48"/>
    </g>
    <g clip-path="url(#p032bbfe5ed)">
     <use xlink:href="#C0_0_9bc96de2bc" x="135.837572" y="63.626358" style="fill: #1f77b4; stroke: #ffffff; stroke-width: 0.48"/>
    </g>
    <g clip-path="url(#p032bbfe5ed)">
     <use xlink:href="#C0_0_9bc96de2bc" x="60.424855" y="76.195145" style="fill: #1f77b4; stroke: #ffffff; stroke-width: 0.48"/>
    </g>
    <g clip-path="url(#p032bbfe5ed)">
     <use xlink:href="#C0_0_9bc96de2bc" x="79.278035" y="176.745434" style="fill: #1f77b4; stroke: #ffffff; stroke-width: 0.48"/>
    </g>
    <g clip-path="url(#p032bbfe5ed)">
     <use xlink:href="#C0_0_9bc96de2bc" x="160.975145" y="113.901503" style="fill: #1f77b4; stroke: #ffffff; stroke-width: 0.48"/>
    </g>
    <g clip-path="url(#p032bbfe5ed)">
     <use xlink:href="#C0_0_9bc96de2bc" x="85.562428" y="164.176647" style="fill: #1f77b4; stroke: #ffffff; stroke-width: 0.48"/>
    </g>
    <g clip-path="url(#p032bbfe5ed)">
     <use xlink:href="#C0_0_9bc96de2bc" x="91.846821" y="126.470289" style="fill: #d62728; stroke: #ffffff; stroke-width: 0.48"/>
    </g>
    <g clip-path="url(#p032bbfe5ed)">
     <use xlink:href="#C0_0_9bc96de2bc" x="54.140462" y="151.607861" style="fill: #d62728; stroke: #ffffff; stroke-width: 0.48"/>
    </g>
    <g clip-path="url(#p032bbfe5ed)">
     <use xlink:href="#C0_0_9bc96de2bc" x="148.406358" y="63.626358" style="fill: #1f77b4; stroke: #ffffff; stroke-width: 0.48"/>
    </g>
    <g clip-path="url(#p032bbfe5ed)">
     <use xlink:href="#C0_0_9bc96de2bc" x="41.571676" y="157.892254" style="fill: #1f77b4; stroke: #ffffff; stroke-width: 0.48"/>
    </g>
    <g clip-path="url(#p032bbfe5ed)">
     <use xlink:href="#C0_0_9bc96de2bc" x="79.278035" y="132.754682" style="fill: #1f77b4; stroke: #ffffff; stroke-width: 0.48"/>
    </g>
    <g clip-path="url(#p032bbfe5ed)">
     <use xlink:href="#C0_0_9bc96de2bc" x="85.562428" y="145.323468" style="fill: #1f77b4; stroke: #ffffff; stroke-width: 0.48"/>
    </g>
    <g clip-path="url(#p032bbfe5ed)">
     <use xlink:href="#C0_0_9bc96de2bc" x="66.709249" y="151.607861" style="fill: #1f77b4; stroke: #ffffff; stroke-width: 0.48"/>
    </g>
    <g clip-path="url(#p032bbfe5ed)">
     <use xlink:href="#C0_0_9bc96de2bc" x="35.287283" y="183.029827" style="fill: #1f77b4; stroke: #ffffff; stroke-width: 0.48"/>
    </g>
    <g clip-path="url(#p032bbfe5ed)">
     <use xlink:href="#C0_0_9bc96de2bc" x="60.424855" y="145.323468" style="fill: #d62728; stroke: #ffffff; stroke-width: 0.48"/>
    </g>
   </g>
   <g id="PathCollection_2"/>
   <g id="PathCollection_3"/>
   <g id="patch_3">
    <path d="M 154.690751 300.736509 
C 192.573491 300.736509 228.909751 285.685537 255.696892 258.898395 
C 282.484034 232.111254 297.535006 195.774993 297.535006 157.892254 
C 297.535006 120.009515 282.484034 83.673255 255.696892 56.886113 
C 228.909751 30.098972 192.573491 15.048 154.690751 15.048 
C 116.808012 15.048 80.471752 30.098972 53.684611 56.886113 
C 26.897469 83.673255 11.846497 120.009515 11.846497 157.892254 
C 11.846497 195.774993 26.897469 232.111254 53.684611 258.898395 
C 80.471752 285.685537 116.808012 300.736509 154.690751 300.736509 
" clip-path="url(#p032bbfe5ed)" style="fill: none; stroke: #000000; stroke-linejoin: miter"/>
   </g>
   <g id="patch_4">
    <path d="M 154.690751 175.677087 
C 159.407344 175.677087 163.931392 173.803165 167.266527 170.46803 
C 170.601662 167.132895 172.475584 162.608847 172.475584 157.892254 
C 172.475584 153.175662 170.601662 148.651613 167.266527 145.316479 
C 163.931392 141.981344 159.407344 140.107422 154.690751 140.107422 
C 149.974159 140.107422 145.450111 141.981344 142.114976 145.316479 
C 138.779841 148.651613 136.905919 153.175662 136.905919 157.892254 
C 136.905919 162.608847 138.779841 167.132895 142.114976 170.46803 
C 145.450111 173.803165 149.974159 175.677087 154.690751 175.677087 
L 154.690751 175.677087 
z
" clip-path="url(#p032bbfe5ed)" style="fill: none; stroke: #000000; stroke-linejoin: miter"/>
   </g>
   <g id="patch_5">
    <path d="M 54.140462 188.245873 
C 63.856977 188.245873 73.176836 184.385461 80.047449 177.514848 
C 86.918062 170.644235 90.778474 161.324376 90.778474 151.607861 
C 90.778474 141.891347 86.918062 132.571488 80.047449 125.700875 
C 73.176836 118.830262 63.856977 114.96985 54.140462 114.96985 
C 44.423948 114.96985 35.104089 118.830262 28.233476 125.700875 
C 21.362863 132.571488 17.502451 141.891347 17.502451 151.607861 
C 17.502451 161.324376 21.362863 170.644235 28.233476 177.514848 
C 35.104089 184.385461 44.423948 188.245873 54.140462 188.245873 
L 54.140462 188.245873 
z
" clip-path="url(#p032bbfe5ed)" style="fill: none; stroke: #000000; stroke-linejoin: miter"/>
   </g>
   <g id="patch_6">
    <path d="M 60.424855 170.46104 
C 67.091418 170.46104 73.485832 167.812387 78.199803 163.098416 
C 82.913775 158.384445 85.562428 151.99003 85.562428 145.323468 
C 85.562428 138.656906 82.913775 132.262492 78.199803 127.54852 
C 73.485832 122.834549 67.091418 120.185896 60.424855 120.185896 
C 53.758293 120.185896 47.363879 122.834549 42.649908 127.54852 
C 37.935936 132.262492 35.287283 138.656906 35.287283 145.323468 
C 35.287283 151.99003 37.935936 158.384445 42.649908 163.098416 
C 47.363879 167.812387 53.758293 170.46104 60.424855 170.46104 
L 60.424855 170.46104 
z
" clip-path="url(#p032bbfe5ed)" style="fill: none; stroke: #000000; stroke-linejoin: miter"/>
   </g>
   <g id="patch_7">
    <path d="M 129.553179 217.719676 
C 155.41944 217.719676 180.229768 207.442902 198.519977 189.152693 
C 216.810185 170.862485 227.08696 146.052157 227.08696 120.185896 
C 227.08696 94.319635 216.810185 69.509307 198.519977 51.219098 
C 180.229768 32.92889 155.41944 22.652116 129.553179 22.652116 
C 103.686918 22.652116 78.87659 32.92889 60.586382 51.219098 
C 42.296173 69.509307 32.019399 94.319635 32.019399 120.185896 
C 32.019399 146.052157 42.296173 170.862485 60.586382 189.152693 
C 78.87659 207.442902 103.686918 217.719676 129.553179 217.719676 
" clip-path="url(#p032bbfe5ed)" style="fill: none; stroke: #000000; stroke-linejoin: miter"/>
   </g>
   <g id="patch_8">
    <path d="M 116.984393 196.918335 
C 129.000871 196.918335 140.526803 192.144138 149.023736 183.647205 
C 157.52067 175.150271 162.294867 163.624339 162.294867 151.607861 
C 162.294867 139.591383 157.52067 128.065451 149.023736 119.568518 
C 140.526803 111.071585 129.000871 106.297387 116.984393 106.297387 
C 104.967915 106.297387 93.441983 111.071585 84.94505 119.568518 
C 76.448116 128.065451 71.673919 139.591383 71.673919 151.607861 
C 71.673919 163.624339 76.448116 175.150271 84.94505 183.647205 
C 93.441983 192.144138 104.967915 196.918335 116.984393 196.918335 
L 116.984393 196.918335 
z
" clip-path="url(#p032bbfe5ed)" style="fill: none; stroke: #000000; stroke-linejoin: miter"/>
   </g>
   <g id="patch_9">
    <path d="M 129.553179 179.824786 
C 145.369598 179.824786 160.540346 173.540856 171.724243 162.35696 
C 182.90814 151.173063 189.192069 136.002315 189.192069 120.185896 
C 189.192069 104.369477 182.90814 89.198729 171.724243 78.014832 
C 160.540346 66.830935 145.369598 60.547006 129.553179 60.547006 
C 113.736761 60.547006 98.566012 66.830935 87.382116 78.014832 
C 76.198219 89.198729 69.914289 104.369477 69.914289 120.185896 
C 69.914289 136.002315 76.198219 151.173063 87.382116 162.35696 
C 98.566012 173.540856 113.736761 179.824786 129.553179 179.824786 
L 129.553179 179.824786 
z
" clip-path="url(#p032bbfe5ed)" style="fill: none; stroke: #000000; stroke-linejoin: miter"/>
   </g>
   <g id="patch_10">
    <path d="M 91.846821 185.732116 
C 107.563241 185.732116 122.638073 179.487916 133.75126 168.374728 
C 144.864448 157.261541 151.108647 142.186709 151.108647 126.470289 
C 151.108647 110.753869 144.864448 95.679037 133.75126 84.56585 
C 122.638073 73.452662 107.563241 67.208462 91.846821 67.208462 
C 76.130401 67.208462 61.055569 73.452662 49.942381 84.56585 
C 38.829194 95.679037 32.584994 110.753869 32.584994 126.470289 
C 32.584994 142.186709 38.829194 157.261541 49.942381 168.374728 
C 61.055569 179.487916 76.130401 185.732116 91.846821 185.732116 
L 91.846821 185.732116 
z
" clip-path="url(#p032bbfe5ed)" style="fill: none; stroke: #000000; stroke-linejoin: miter"/>
   </g>
   <g id="matplotlib.axis_1">
    <g id="xtick_1">
     <g id="line2d_1">
      <defs>
       <path id="m0c02df4bfd" d="M 0 0 
L 0 3.5 
" style="stroke: #000000; stroke-width: 0.8"/>
      </defs>
      <g>
       <use xlink:href="#m0c02df4bfd" x="35.287283" y="189" style="stroke: #000000; stroke-width: 0.8"/>
      </g>
     </g>
     <g id="text_1">
      <!-- 0 -->
      <g transform="translate(32.287283 204.3325)scale(0.12 -0.12)">
       <defs>
        <path id="TimesNewRomanPSMT-30" d="M 231 2094 
Q 231 2819 450 3342 
Q 669 3866 1031 4122 
Q 1313 4325 1613 4325 
Q 2100 4325 2488 3828 
Q 2972 3213 2972 2159 
Q 2972 1422 2759 906 
Q 2547 391 2217 158 
Q 1888 -75 1581 -75 
Q 975 -75 572 641 
Q 231 1244 231 2094 
z
M 844 2016 
Q 844 1141 1059 588 
Q 1238 122 1591 122 
Q 1759 122 1940 273 
Q 2122 425 2216 781 
Q 2359 1319 2359 2297 
Q 2359 3022 2209 3506 
Q 2097 3866 1919 4016 
Q 1791 4119 1609 4119 
Q 1397 4119 1231 3928 
Q 1006 3669 925 3112 
Q 844 2556 844 2016 
z
" transform="scale(0.015625)"/>
       </defs>
       <use xlink:href="#TimesNewRomanPSMT-30"/>
      </g>
     </g>
    </g>
    <g id="xtick_2">
     <g id="line2d_2">
      <g>
       <use xlink:href="#m0c02df4bfd" x="66.709249" y="189" style="stroke: #000000; stroke-width: 0.8"/>
      </g>
     </g>
     <g id="text_2">
      <!-- 5 -->
      <g transform="translate(63.709249 204.3325)scale(0.12 -0.12)">
       <defs>
        <path id="TimesNewRomanPSMT-35" d="M 2778 4238 
L 2534 3706 
L 1259 3706 
L 981 3138 
Q 1809 3016 2294 2522 
Q 2709 2097 2709 1522 
Q 2709 1188 2573 903 
Q 2438 619 2231 419 
Q 2025 219 1772 97 
Q 1413 -75 1034 -75 
Q 653 -75 479 54 
Q 306 184 306 341 
Q 306 428 378 495 
Q 450 563 559 563 
Q 641 563 702 538 
Q 763 513 909 409 
Q 1144 247 1384 247 
Q 1750 247 2026 523 
Q 2303 800 2303 1197 
Q 2303 1581 2056 1914 
Q 1809 2247 1375 2428 
Q 1034 2569 447 2591 
L 1259 4238 
L 2778 4238 
z
" transform="scale(0.015625)"/>
       </defs>
       <use xlink:href="#TimesNewRomanPSMT-35"/>
      </g>
     </g>
    </g>
    <g id="xtick_3">
     <g id="line2d_3">
      <g>
       <use xlink:href="#m0c02df4bfd" x="98.131214" y="189" style="stroke: #000000; stroke-width: 0.8"/>
      </g>
     </g>
     <g id="text_3">
      <!-- 10 -->
      <g transform="translate(92.131214 204.3325)scale(0.12 -0.12)">
       <defs>
        <path id="TimesNewRomanPSMT-31" d="M 750 3822 
L 1781 4325 
L 1884 4325 
L 1884 747 
Q 1884 391 1914 303 
Q 1944 216 2037 169 
Q 2131 122 2419 116 
L 2419 0 
L 825 0 
L 825 116 
Q 1125 122 1212 167 
Q 1300 213 1334 289 
Q 1369 366 1369 747 
L 1369 3034 
Q 1369 3497 1338 3628 
Q 1316 3728 1258 3775 
Q 1200 3822 1119 3822 
Q 1003 3822 797 3725 
L 750 3822 
z
" transform="scale(0.015625)"/>
       </defs>
       <use xlink:href="#TimesNewRomanPSMT-31"/>
       <use xlink:href="#TimesNewRomanPSMT-30" x="50"/>
      </g>
     </g>
    </g>
    <g id="xtick_4">
     <g id="line2d_4">
      <g>
       <use xlink:href="#m0c02df4bfd" x="129.553179" y="189" style="stroke: #000000; stroke-width: 0.8"/>
      </g>
     </g>
     <g id="text_4">
      <!-- 15 -->
      <g transform="translate(123.553179 204.3325)scale(0.12 -0.12)">
       <use xlink:href="#TimesNewRomanPSMT-31"/>
       <use xlink:href="#TimesNewRomanPSMT-35" x="50"/>
      </g>
     </g>
    </g>
    <g id="xtick_5">
     <g id="line2d_5">
      <g>
       <use xlink:href="#m0c02df4bfd" x="160.975145" y="189" style="stroke: #000000; stroke-width: 0.8"/>
      </g>
     </g>
     <g id="text_5">
      <!-- 20 -->
      <g transform="translate(154.975145 204.3325)scale(0.12 -0.12)">
       <defs>
        <path id="TimesNewRomanPSMT-32" d="M 2934 816 
L 2638 0 
L 138 0 
L 138 116 
Q 1241 1122 1691 1759 
Q 2141 2397 2141 2925 
Q 2141 3328 1894 3587 
Q 1647 3847 1303 3847 
Q 991 3847 742 3664 
Q 494 3481 375 3128 
L 259 3128 
Q 338 3706 661 4015 
Q 984 4325 1469 4325 
Q 1984 4325 2329 3994 
Q 2675 3663 2675 3213 
Q 2675 2891 2525 2569 
Q 2294 2063 1775 1497 
Q 997 647 803 472 
L 1909 472 
Q 2247 472 2383 497 
Q 2519 522 2628 598 
Q 2738 675 2819 816 
L 2934 816 
z
" transform="scale(0.015625)"/>
       </defs>
       <use xlink:href="#TimesNewRomanPSMT-32"/>
       <use xlink:href="#TimesNewRomanPSMT-30" x="50"/>
      </g>
     </g>
    </g>
    <g id="xtick_6">
     <g id="line2d_6">
      <g>
       <use xlink:href="#m0c02df4bfd" x="192.39711" y="189" style="stroke: #000000; stroke-width: 0.8"/>
      </g>
     </g>
     <g id="text_6">
      <!-- 25 -->
      <g transform="translate(186.39711 204.3325)scale(0.12 -0.12)">
       <use xlink:href="#TimesNewRomanPSMT-32"/>
       <use xlink:href="#TimesNewRomanPSMT-35" x="50"/>
      </g>
     </g>
    </g>
   </g>
   <g id="matplotlib.axis_2">
    <g id="ytick_1">
     <g id="line2d_7">
      <defs>
       <path id="mc900ba646f" d="M 0 0 
L -3.5 0 
" style="stroke: #000000; stroke-width: 0.8"/>
      </defs>
      <g>
       <use xlink:href="#mc900ba646f" x="29.00289" y="183.029827" style="stroke: #000000; stroke-width: 0.8"/>
      </g>
     </g>
     <g id="text_7">
      <!-- 0 -->
      <g transform="translate(16.00289 187.196077)scale(0.12 -0.12)">
       <use xlink:href="#TimesNewRomanPSMT-30"/>
      </g>
     </g>
    </g>
    <g id="ytick_2">
     <g id="line2d_8">
      <g>
       <use xlink:href="#mc900ba646f" x="29.00289" y="151.607861" style="stroke: #000000; stroke-width: 0.8"/>
      </g>
     </g>
     <g id="text_8">
      <!-- 5 -->
      <g transform="translate(16.00289 155.774111)scale(0.12 -0.12)">
       <use xlink:href="#TimesNewRomanPSMT-35"/>
      </g>
     </g>
    </g>
    <g id="ytick_3">
     <g id="line2d_9">
      <g>
       <use xlink:href="#mc900ba646f" x="29.00289" y="120.185896" style="stroke: #000000; stroke-width: 0.8"/>
      </g>
     </g>
     <g id="text_9">
      <!-- 10 -->
      <g transform="translate(10.00289 124.352146)scale(0.12 -0.12)">
       <use xlink:href="#TimesNewRomanPSMT-31"/>
       <use xlink:href="#TimesNewRomanPSMT-30" x="50"/>
      </g>
     </g>
    </g>
    <g id="ytick_4">
     <g id="line2d_10">
      <g>
       <use xlink:href="#mc900ba646f" x="29.00289" y="88.763931" style="stroke: #000000; stroke-width: 0.8"/>
      </g>
     </g>
     <g id="text_10">
      <!-- 15 -->
      <g transform="translate(10.00289 92.930181)scale(0.12 -0.12)">
       <use xlink:href="#TimesNewRomanPSMT-31"/>
       <use xlink:href="#TimesNewRomanPSMT-35" x="50"/>
      </g>
     </g>
    </g>
    <g id="ytick_5">
     <g id="line2d_11">
      <g>
       <use xlink:href="#mc900ba646f" x="29.00289" y="57.341965" style="stroke: #000000; stroke-width: 0.8"/>
      </g>
     </g>
     <g id="text_11">
      <!-- 20 -->
      <g transform="translate(10.00289 61.508215)scale(0.12 -0.12)">
       <use xlink:href="#TimesNewRomanPSMT-32"/>
       <use xlink:href="#TimesNewRomanPSMT-30" x="50"/>
      </g>
     </g>
    </g>
    <g id="ytick_6">
     <g id="line2d_12">
      <g>
       <use xlink:href="#mc900ba646f" x="29.00289" y="25.92" style="stroke: #000000; stroke-width: 0.8"/>
      </g>
     </g>
     <g id="text_12">
      <!-- 25 -->
      <g transform="translate(10.00289 30.08625)scale(0.12 -0.12)">
       <use xlink:href="#TimesNewRomanPSMT-32"/>
       <use xlink:href="#TimesNewRomanPSMT-35" x="50"/>
      </g>
     </g>
    </g>
   </g>
   <g id="patch_11">
    <path d="M 29.00289 189 
L 29.00289 25.92 
" style="fill: none; stroke: #000000; stroke-width: 0.8; stroke-linejoin: miter; stroke-linecap: square"/>
   </g>
   <g id="patch_12">
    <path d="M 192.39711 189 
L 192.39711 25.92 
" style="fill: none; stroke: #000000; stroke-width: 0.8; stroke-linejoin: miter; stroke-linecap: square"/>
   </g>
   <g id="patch_13">
    <path d="M 29.00289 189 
L 192.39711 189 
" style="fill: none; stroke: #000000; stroke-width: 0.8; stroke-linejoin: miter; stroke-linecap: square"/>
   </g>
   <g id="patch_14">
    <path d="M 29.00289 25.92 
L 192.39711 25.92 
" style="fill: none; stroke: #000000; stroke-width: 0.8; stroke-linejoin: miter; stroke-linecap: square"/>
   </g>
  </g>
 </g>
 <defs>
  <clipPath id="p032bbfe5ed">
   <rect x="29.00289" y="25.92" width="163.39422" height="163.08"/>
  </clipPath>
 </defs>
</svg>
