<?xml version="1.0" encoding="utf-8" standalone="no"?>
<!DOCTYPE svg PUBLIC "-//W3C//DTD SVG 1.1//EN"
  "http://www.w3.org/Graphics/SVG/1.1/DTD/svg11.dtd">
<svg xmlns:xlink="http://www.w3.org/1999/xlink" width="194.4pt" height="194.4pt" viewBox="0 0 194.4 194.4" xmlns="http://www.w3.org/2000/svg" version="1.1">
 <metadata>
  <rdf:RDF xmlns:dc="http://purl.org/dc/elements/1.1/" xmlns:cc="http://creativecommons.org/ns#" xmlns:rdf="http://www.w3.org/1999/02/22-rdf-syntax-ns#">
   <cc:Work>
    <dc:type rdf:resource="http://purl.org/dc/dcmitype/StillImage"/>
    <dc:date>2023-05-14T15:25:50.674155</dc:date>
    <dc:format>image/svg+xml</dc:format>
    <dc:creator>
     <cc:Agent>
      <dc:title>Matplotlib v3.5.1, https://matplotlib.org/</dc:title>
     </cc:Agent>
    </dc:creator>
   </cc:Work>
  </rdf:RDF>
 </metadata>
 <defs>
  <style type="text/css">*{stroke-linejoin: round; stroke-linecap: butt}</style>
 </defs>
 <g id="figure_1">
  <g id="patch_1">
   <path d="M 0 194.4 
L 194.4 194.4 
L 194.4 0 
L 0 0 
L 0 194.4 
z
" style="fill: none"/>
  </g>
  <g id="axes_1">
   <g id="patch_2">
    <path d="M 26.102601 170.1 
L 173.157399 170.1 
L 173.157399 23.328 
L 26.102601 23.328 
z
" style="fill: #ffffff"/>
   </g>
   <g id="PathCollection_1">
    <defs>
     <path id="C0_0_8d2ed46693" d="M 0 3 
C 0.795609 3 1.55874 2.683901 2.12132 2.12132 
C 2.683901 1.55874 3 0.795609 3 -0 
C 3 -0.795609 2.683901 -1.55874 2.12132 -2.12132 
C 1.55874 -2.683901 0.795609 -3 0 -3 
C -0.795609 -3 -1.55874 -2.683901 -2.12132 -2.12132 
C -2.683901 -1.55874 -3 -0.795609 -3 0 
C -3 0.795609 -2.683901 1.55874 -2.12132 2.12132 
C -1.55874 2.683901 -0.795609 3 0 3 
z
"/>
    </defs>
    <g clip-path="url(#p0b5343e1fb)">
     <use xlink:href="#C0_0_8d2ed46693" x="105.285954" y="136.447075" style="fill: #d62728"/>
    </g>
    <g clip-path="url(#p0b5343e1fb)">
     <use xlink:href="#C0_0_8d2ed46693" x="139.221676" y="142.103029" style="fill: #d62728"/>
    </g>
    <g clip-path="url(#p0b5343e1fb)">
     <use xlink:href="#C0_0_8d2ed46693" x="65.694277" y="164.726844" style="fill: #d62728"/>
    </g>
    <g clip-path="url(#p0b5343e1fb)">
     <use xlink:href="#C0_0_8d2ed46693" x="99.63" y="125.135168" style="fill: #d62728"/>
    </g>
    <g clip-path="url(#p0b5343e1fb)">
     <use xlink:href="#C0_0_8d2ed46693" x="127.909769" y="130.791121" style="fill: #1f77b4"/>
    </g>
    <g clip-path="url(#p0b5343e1fb)">
     <use xlink:href="#C0_0_8d2ed46693" x="116.597861" y="108.167306" style="fill: #d62728"/>
    </g>
    <g clip-path="url(#p0b5343e1fb)">
     <use xlink:href="#C0_0_8d2ed46693" x="122.253815" y="57.263723" style="fill: #1f77b4"/>
    </g>
    <g clip-path="url(#p0b5343e1fb)">
     <use xlink:href="#C0_0_8d2ed46693" x="54.38237" y="68.57563" style="fill: #1f77b4"/>
    </g>
    <g clip-path="url(#p0b5343e1fb)">
     <use xlink:href="#C0_0_8d2ed46693" x="71.350231" y="159.07089" style="fill: #1f77b4"/>
    </g>
    <g clip-path="url(#p0b5343e1fb)">
     <use xlink:href="#C0_0_8d2ed46693" x="144.87763" y="102.511353" style="fill: #1f77b4"/>
    </g>
    <g clip-path="url(#p0b5343e1fb)">
     <use xlink:href="#C0_0_8d2ed46693" x="77.006185" y="147.758983" style="fill: #1f77b4"/>
    </g>
    <g clip-path="url(#p0b5343e1fb)">
     <use xlink:href="#C0_0_8d2ed46693" x="82.662139" y="113.82326" style="fill: #d62728"/>
    </g>
    <g clip-path="url(#p0b5343e1fb)">
     <use xlink:href="#C0_0_8d2ed46693" x="48.726416" y="136.447075" style="fill: #d62728"/>
    </g>
    <g clip-path="url(#p0b5343e1fb)">
     <use xlink:href="#C0_0_8d2ed46693" x="133.565723" y="57.263723" style="fill: #1f77b4"/>
    </g>
    <g clip-path="url(#p0b5343e1fb)">
     <use xlink:href="#C0_0_8d2ed46693" x="37.414509" y="142.103029" style="fill: #1f77b4"/>
    </g>
    <g clip-path="url(#p0b5343e1fb)">
     <use xlink:href="#C0_0_8d2ed46693" x="71.350231" y="119.479214" style="fill: #1f77b4"/>
    </g>
    <g clip-path="url(#p0b5343e1fb)">
     <use xlink:href="#C0_0_8d2ed46693" x="77.006185" y="130.791121" style="fill: #1f77b4"/>
    </g>
    <g clip-path="url(#p0b5343e1fb)">
     <use xlink:href="#C0_0_8d2ed46693" x="60.038324" y="136.447075" style="fill: #1f77b4"/>
    </g>
    <g clip-path="url(#p0b5343e1fb)">
     <use xlink:href="#C0_0_8d2ed46693" x="31.758555" y="164.726844" style="fill: #1f77b4"/>
    </g>
    <g clip-path="url(#p0b5343e1fb)">
     <use xlink:href="#C0_0_8d2ed46693" x="54.38237" y="130.791121" style="fill: #d62728"/>
    </g>
   </g>
   <g id="PathCollection_2"/>
   <g id="PathCollection_3"/>
   <g id="patch_3">
    <path d="M 139.221676 270.662858 
C 173.316141 270.662858 206.018776 257.116983 230.127203 233.008556 
C 254.235631 208.900128 267.781505 176.197494 267.781505 142.103029 
C 267.781505 108.008564 254.235631 75.30593 230.127203 51.197502 
C 206.018776 27.089075 173.316141 13.5432 139.221676 13.5432 
C 105.127211 13.5432 72.424577 27.089075 48.316149 51.197502 
C 24.207722 75.30593 10.661847 108.008564 10.661847 142.103029 
C 10.661847 176.197494 24.207722 208.900128 48.316149 233.008556 
C 72.424577 257.116983 105.127211 270.662858 139.221676 270.662858 
" clip-path="url(#p0b5343e1fb)" style="fill: none; stroke: #7d1d3f; stroke-width: 0.75; stroke-linejoin: miter"/>
   </g>
   <g id="patch_4">
    <path d="M 139.221676 158.109378 
C 143.46661 158.109378 147.538253 156.422848 150.539874 153.421227 
C 153.541496 150.419606 155.228025 146.347962 155.228025 142.103029 
C 155.228025 137.858095 153.541496 133.786452 150.539874 130.784831 
C 147.538253 127.78321 143.46661 126.09668 139.221676 126.09668 
C 134.976743 126.09668 130.905099 127.78321 127.903478 130.784831 
C 124.901857 133.786452 123.215327 137.858095 123.215327 142.103029 
C 123.215327 146.347962 124.901857 150.419606 127.903478 153.421227 
C 130.905099 156.422848 134.976743 158.109378 139.221676 158.109378 
L 139.221676 158.109378 
z
" clip-path="url(#p0b5343e1fb)" style="fill: none; stroke: #84714f; stroke-width: 0.75; stroke-linejoin: miter"/>
   </g>
   <g id="patch_5">
    <path d="M 48.726416 169.421286 
C 57.471279 169.421286 65.859152 165.946915 72.042704 159.763363 
C 78.226256 153.579811 81.700627 145.191938 81.700627 136.447075 
C 81.700627 127.702212 78.226256 119.314339 72.042704 113.130787 
C 65.859152 106.947236 57.471279 103.472865 48.726416 103.472865 
C 39.981553 103.472865 31.59368 106.947236 25.410128 113.130787 
C 19.226577 119.314339 15.752206 127.702212 15.752206 136.447075 
C 15.752206 145.191938 19.226577 153.579811 25.410128 159.763363 
C 31.59368 165.946915 39.981553 169.421286 48.726416 169.421286 
L 48.726416 169.421286 
z
" clip-path="url(#p0b5343e1fb)" style="fill: none; stroke: #7d1d3f; stroke-width: 0.75; stroke-linejoin: miter"/>
   </g>
   <g id="patch_6">
    <path d="M 54.38237 153.414936 
C 60.382276 153.414936 66.137249 151.031149 70.379823 146.788574 
C 74.622397 142.546 77.006185 136.791027 77.006185 130.791121 
C 77.006185 124.791216 74.622397 119.036242 70.379823 114.793668 
C 66.137249 110.551094 60.382276 108.167306 54.38237 108.167306 
C 48.382464 108.167306 42.627491 110.551094 38.384917 114.793668 
C 34.142343 119.036242 31.758555 124.791216 31.758555 130.791121 
C 31.758555 136.791027 34.142343 142.546 38.384917 146.788574 
C 42.627491 151.031149 48.382464 153.414936 54.38237 153.414936 
L 54.38237 153.414936 
z
" clip-path="url(#p0b5343e1fb)" style="fill: none; stroke: #84714f; stroke-width: 0.75; stroke-linejoin: miter"/>
   </g>
   <g id="patch_7">
    <path d="M 116.597861 195.947709 
C 139.877496 195.947709 162.206791 186.698612 178.667979 170.237424 
C 195.129167 153.776236 204.378264 131.446941 204.378264 108.167306 
C 204.378264 84.887672 195.129167 62.558376 178.667979 46.097189 
C 162.206791 29.636001 139.877496 20.386904 116.597861 20.386904 
C 93.318226 20.386904 70.988931 29.636001 54.527744 46.097189 
C 38.066556 62.558376 28.817459 84.887672 28.817459 108.167306 
C 28.817459 131.446941 38.066556 153.776236 54.527744 170.237424 
C 70.988931 186.698612 93.318226 195.947709 116.597861 195.947709 
" clip-path="url(#p0b5343e1fb)" style="fill: none; stroke: #7d1d3f; stroke-width: 0.75; stroke-linejoin: miter"/>
   </g>
   <g id="patch_8">
    <path d="M 105.285954 177.226502 
C 116.100784 177.226502 126.474123 172.929724 134.121363 165.282484 
C 141.768603 157.635244 146.06538 147.261905 146.06538 136.447075 
C 146.06538 125.632245 141.768603 115.258906 134.121363 107.611666 
C 126.474123 99.964426 116.100784 95.667649 105.285954 95.667649 
C 94.471123 95.667649 84.097785 99.964426 76.450545 107.611666 
C 68.803305 115.258906 64.506527 125.632245 64.506527 136.447075 
C 64.506527 147.261905 68.803305 157.635244 76.450545 165.282484 
C 84.097785 172.929724 94.471123 177.226502 105.285954 177.226502 
L 105.285954 177.226502 
z
" clip-path="url(#p0b5343e1fb)" style="fill: none; stroke: #84714f; stroke-width: 0.75; stroke-linejoin: miter"/>
   </g>
   <g id="patch_9">
    <path d="M 116.597861 161.842308 
C 130.832638 161.842308 144.486311 156.186771 154.551819 146.121264 
C 164.617326 136.055757 170.272862 122.402083 170.272862 108.167306 
C 170.272862 93.93253 164.617326 80.278856 154.551819 70.213349 
C 144.486311 60.147842 130.832638 54.492305 116.597861 54.492305 
C 102.363085 54.492305 88.709411 60.147842 78.643904 70.213349 
C 68.578397 80.278856 62.92286 93.93253 62.92286 108.167306 
C 62.92286 122.402083 68.578397 136.055757 78.643904 146.121264 
C 88.709411 156.186771 102.363085 161.842308 116.597861 161.842308 
L 116.597861 161.842308 
z
" clip-path="url(#p0b5343e1fb)" style="fill: none; stroke: #84714f; stroke-width: 0.75; stroke-linejoin: miter"/>
   </g>
   <g id="patch_10">
    <path d="M 82.662139 167.158904 
C 96.806917 167.158904 110.374266 161.539124 120.376134 151.537256 
C 130.378003 141.535387 135.997783 127.968038 135.997783 113.82326 
C 135.997783 99.678482 130.378003 86.111133 120.376134 76.109265 
C 110.374266 66.107396 96.806917 60.487616 82.662139 60.487616 
C 68.517361 60.487616 54.950012 66.107396 44.948143 76.109265 
C 34.946275 86.111133 29.326495 99.678482 29.326495 113.82326 
C 29.326495 127.968038 34.946275 141.535387 44.948143 151.537256 
C 54.950012 161.539124 68.517361 167.158904 82.662139 167.158904 
L 82.662139 167.158904 
z
" clip-path="url(#p0b5343e1fb)" style="fill: none; stroke: #84714f; stroke-width: 0.75; stroke-linejoin: miter"/>
   </g>
   <g id="matplotlib.axis_1">
    <g id="xtick_1">
     <g id="line2d_1">
      <defs>
       <path id="m7e43ad2885" d="M 0 0 
L 0 3.5 
" style="stroke: #000000; stroke-width: 0.8"/>
      </defs>
      <g>
       <use xlink:href="#m7e43ad2885" x="31.758555" y="170.1" style="stroke: #000000; stroke-width: 0.8"/>
      </g>
     </g>
     <g id="text_1">
      <!-- 0 -->
      <g transform="translate(28.758555 185.4325)scale(0.12 -0.12)">
       <defs>
        <path id="TimesNewRomanPSMT-30" d="M 231 2094 
Q 231 2819 450 3342 
Q 669 3866 1031 4122 
Q 1313 4325 1613 4325 
Q 2100 4325 2488 3828 
Q 2972 3213 2972 2159 
Q 2972 1422 2759 906 
Q 2547 391 2217 158 
Q 1888 -75 1581 -75 
Q 975 -75 572 641 
Q 231 1244 231 2094 
z
M 844 2016 
Q 844 1141 1059 588 
Q 1238 122 1591 122 
Q 1759 122 1940 273 
Q 2122 425 2216 781 
Q 2359 1319 2359 2297 
Q 2359 3022 2209 3506 
Q 2097 3866 1919 4016 
Q 1791 4119 1609 4119 
Q 1397 4119 1231 3928 
Q 1006 3669 925 3112 
Q 844 2556 844 2016 
z
" transform="scale(0.015625)"/>
       </defs>
       <use xlink:href="#TimesNewRomanPSMT-30"/>
      </g>
     </g>
    </g>
    <g id="xtick_2">
     <g id="line2d_2">
      <g>
       <use xlink:href="#m7e43ad2885" x="60.038324" y="170.1" style="stroke: #000000; stroke-width: 0.8"/>
      </g>
     </g>
     <g id="text_2">
      <!-- 5 -->
      <g transform="translate(57.038324 185.4325)scale(0.12 -0.12)">
       <defs>
        <path id="TimesNewRomanPSMT-35" d="M 2778 4238 
L 2534 3706 
L 1259 3706 
L 981 3138 
Q 1809 3016 2294 2522 
Q 2709 2097 2709 1522 
Q 2709 1188 2573 903 
Q 2438 619 2231 419 
Q 2025 219 1772 97 
Q 1413 -75 1034 -75 
Q 653 -75 479 54 
Q 306 184 306 341 
Q 306 428 378 495 
Q 450 563 559 563 
Q 641 563 702 538 
Q 763 513 909 409 
Q 1144 247 1384 247 
Q 1750 247 2026 523 
Q 2303 800 2303 1197 
Q 2303 1581 2056 1914 
Q 1809 2247 1375 2428 
Q 1034 2569 447 2591 
L 1259 4238 
L 2778 4238 
z
" transform="scale(0.015625)"/>
       </defs>
       <use xlink:href="#TimesNewRomanPSMT-35"/>
      </g>
     </g>
    </g>
    <g id="xtick_3">
     <g id="line2d_3">
      <g>
       <use xlink:href="#m7e43ad2885" x="88.318092" y="170.1" style="stroke: #000000; stroke-width: 0.8"/>
      </g>
     </g>
     <g id="text_3">
      <!-- 10 -->
      <g transform="translate(82.318092 185.4325)scale(0.12 -0.12)">
       <defs>
        <path id="TimesNewRomanPSMT-31" d="M 750 3822 
L 1781 4325 
L 1884 4325 
L 1884 747 
Q 1884 391 1914 303 
Q 1944 216 2037 169 
Q 2131 122 2419 116 
L 2419 0 
L 825 0 
L 825 116 
Q 1125 122 1212 167 
Q 1300 213 1334 289 
Q 1369 366 1369 747 
L 1369 3034 
Q 1369 3497 1338 3628 
Q 1316 3728 1258 3775 
Q 1200 3822 1119 3822 
Q 1003 3822 797 3725 
L 750 3822 
z
" transform="scale(0.015625)"/>
       </defs>
       <use xlink:href="#TimesNewRomanPSMT-31"/>
       <use xlink:href="#TimesNewRomanPSMT-30" x="50"/>
      </g>
     </g>
    </g>
    <g id="xtick_4">
     <g id="line2d_4">
      <g>
       <use xlink:href="#m7e43ad2885" x="116.597861" y="170.1" style="stroke: #000000; stroke-width: 0.8"/>
      </g>
     </g>
     <g id="text_4">
      <!-- 15 -->
      <g transform="translate(110.597861 185.4325)scale(0.12 -0.12)">
       <use xlink:href="#TimesNewRomanPSMT-31"/>
       <use xlink:href="#TimesNewRomanPSMT-35" x="50"/>
      </g>
     </g>
    </g>
    <g id="xtick_5">
     <g id="line2d_5">
      <g>
       <use xlink:href="#m7e43ad2885" x="144.87763" y="170.1" style="stroke: #000000; stroke-width: 0.8"/>
      </g>
     </g>
     <g id="text_5">
      <!-- 20 -->
      <g transform="translate(138.87763 185.4325)scale(0.12 -0.12)">
       <defs>
        <path id="TimesNewRomanPSMT-32" d="M 2934 816 
L 2638 0 
L 138 0 
L 138 116 
Q 1241 1122 1691 1759 
Q 2141 2397 2141 2925 
Q 2141 3328 1894 3587 
Q 1647 3847 1303 3847 
Q 991 3847 742 3664 
Q 494 3481 375 3128 
L 259 3128 
Q 338 3706 661 4015 
Q 984 4325 1469 4325 
Q 1984 4325 2329 3994 
Q 2675 3663 2675 3213 
Q 2675 2891 2525 2569 
Q 2294 2063 1775 1497 
Q 997 647 803 472 
L 1909 472 
Q 2247 472 2383 497 
Q 2519 522 2628 598 
Q 2738 675 2819 816 
L 2934 816 
z
" transform="scale(0.015625)"/>
       </defs>
       <use xlink:href="#TimesNewRomanPSMT-32"/>
       <use xlink:href="#TimesNewRomanPSMT-30" x="50"/>
      </g>
     </g>
    </g>
    <g id="xtick_6">
     <g id="line2d_6">
      <g>
       <use xlink:href="#m7e43ad2885" x="173.157399" y="170.1" style="stroke: #000000; stroke-width: 0.8"/>
      </g>
     </g>
     <g id="text_6">
      <!-- 25 -->
      <g transform="translate(167.157399 185.4325)scale(0.12 -0.12)">
       <use xlink:href="#TimesNewRomanPSMT-32"/>
       <use xlink:href="#TimesNewRomanPSMT-35" x="50"/>
      </g>
     </g>
    </g>
   </g>
   <g id="matplotlib.axis_2">
    <g id="ytick_1">
     <g id="line2d_7">
      <defs>
       <path id="md6f735be55" d="M 0 0 
L -3.5 0 
" style="stroke: #000000; stroke-width: 0.8"/>
      </defs>
      <g>
       <use xlink:href="#md6f735be55" x="26.102601" y="164.726844" style="stroke: #000000; stroke-width: 0.8"/>
      </g>
     </g>
     <g id="text_7">
      <!-- 0 -->
      <g transform="translate(13.102601 168.893094)scale(0.12 -0.12)">
       <use xlink:href="#TimesNewRomanPSMT-30"/>
      </g>
     </g>
    </g>
    <g id="ytick_2">
     <g id="line2d_8">
      <g>
       <use xlink:href="#md6f735be55" x="26.102601" y="136.447075" style="stroke: #000000; stroke-width: 0.8"/>
      </g>
     </g>
     <g id="text_8">
      <!-- 5 -->
      <g transform="translate(13.102601 140.613325)scale(0.12 -0.12)">
       <use xlink:href="#TimesNewRomanPSMT-35"/>
      </g>
     </g>
    </g>
    <g id="ytick_3">
     <g id="line2d_9">
      <g>
       <use xlink:href="#md6f735be55" x="26.102601" y="108.167306" style="stroke: #000000; stroke-width: 0.8"/>
      </g>
     </g>
     <g id="text_9">
      <!-- 10 -->
      <g transform="translate(7.102601 112.333556)scale(0.12 -0.12)">
       <use xlink:href="#TimesNewRomanPSMT-31"/>
       <use xlink:href="#TimesNewRomanPSMT-30" x="50"/>
      </g>
     </g>
    </g>
    <g id="ytick_4">
     <g id="line2d_10">
      <g>
       <use xlink:href="#md6f735be55" x="26.102601" y="79.887538" style="stroke: #000000; stroke-width: 0.8"/>
      </g>
     </g>
     <g id="text_10">
      <!-- 15 -->
      <g transform="translate(7.102601 84.053788)scale(0.12 -0.12)">
       <use xlink:href="#TimesNewRomanPSMT-31"/>
       <use xlink:href="#TimesNewRomanPSMT-35" x="50"/>
      </g>
     </g>
    </g>
    <g id="ytick_5">
     <g id="line2d_11">
      <g>
       <use xlink:href="#md6f735be55" x="26.102601" y="51.607769" style="stroke: #000000; stroke-width: 0.8"/>
      </g>
     </g>
     <g id="text_11">
      <!-- 20 -->
      <g transform="translate(7.102601 55.774019)scale(0.12 -0.12)">
       <use xlink:href="#TimesNewRomanPSMT-32"/>
       <use xlink:href="#TimesNewRomanPSMT-30" x="50"/>
      </g>
     </g>
    </g>
    <g id="ytick_6">
     <g id="line2d_12">
      <g>
       <use xlink:href="#md6f735be55" x="26.102601" y="23.328" style="stroke: #000000; stroke-width: 0.8"/>
      </g>
     </g>
     <g id="text_12">
      <!-- 25 -->
      <g transform="translate(7.102601 27.49425)scale(0.12 -0.12)">
       <use xlink:href="#TimesNewRomanPSMT-32"/>
       <use xlink:href="#TimesNewRomanPSMT-35" x="50"/>
      </g>
     </g>
    </g>
   </g>
   <g id="patch_11">
    <path d="M 26.102601 170.1 
L 26.102601 23.328 
" style="fill: none; stroke: #000000; stroke-width: 0.8; stroke-linejoin: miter; stroke-linecap: square"/>
   </g>
   <g id="patch_12">
    <path d="M 173.157399 170.1 
L 173.157399 23.328 
" style="fill: none; stroke: #000000; stroke-width: 0.8; stroke-linejoin: miter; stroke-linecap: square"/>
   </g>
   <g id="patch_13">
    <path d="M 26.102601 170.1 
L 173.157399 170.1 
" style="fill: none; stroke: #000000; stroke-width: 0.8; stroke-linejoin: miter; stroke-linecap: square"/>
   </g>
   <g id="patch_14">
    <path d="M 26.102601 23.328 
L 173.157399 23.328 
" style="fill: none; stroke: #000000; stroke-width: 0.8; stroke-linejoin: miter; stroke-linecap: square"/>
   </g>
  </g>
 </g>
 <defs>
  <clipPath id="p0b5343e1fb">
   <rect x="26.102601" y="23.328" width="147.054798" height="146.772"/>
  </clipPath>
 </defs>
</svg>
