<?xml version="1.0" encoding="utf-8" standalone="no"?>
<!DOCTYPE svg PUBLIC "-//W3C//DTD SVG 1.1//EN"
  "http://www.w3.org/Graphics/SVG/1.1/DTD/svg11.dtd">
<svg xmlns:xlink="http://www.w3.org/1999/xlink" width="194.4pt" height="194.4pt" viewBox="0 0 194.4 194.4" xmlns="http://www.w3.org/2000/svg" version="1.1">
 <metadata>
  <rdf:RDF xmlns:dc="http://purl.org/dc/elements/1.1/" xmlns:cc="http://creativecommons.org/ns#" xmlns:rdf="http://www.w3.org/1999/02/22-rdf-syntax-ns#">
   <cc:Work>
    <dc:type rdf:resource="http://purl.org/dc/dcmitype/StillImage"/>
    <dc:date>2023-05-24T13:25:56.004903</dc:date>
    <dc:format>image/svg+xml</dc:format>
    <dc:creator>
     <cc:Agent>
      <dc:title>Matplotlib v3.7.0, https://matplotlib.org/</dc:title>
     </cc:Agent>
    </dc:creator>
   </cc:Work>
  </rdf:RDF>
 </metadata>
 <defs>
  <style type="text/css">*{stroke-linejoin: round; stroke-linecap: butt}</style>
 </defs>
 <g id="figure_1">
  <g id="patch_1">
   <path d="M 0 194.4 
L 194.4 194.4 
L 194.4 0 
L 0 0 
z
" style="fill: #ffffff"/>
  </g>
  <g id="axes_1">
   <g id="patch_2">
    <path d="M 24.3 169.906705 
L 174.96 169.906705 
L 174.96 26.437295 
L 24.3 26.437295 
z
" style="fill: #ffffff"/>
   </g>
   <g id="PathCollection_1">
    <defs>
     <path id="C0_0_3b6fdc396b" d="M 0 3 
C 0.795609 3 1.55874 2.683901 2.12132 2.12132 
C 2.683901 1.55874 3 0.795609 3 -0 
C 3 -0.795609 2.683901 -1.55874 2.12132 -2.12132 
C 1.55874 -2.683901 0.795609 -3 0 -3 
C -0.795609 -3 -1.55874 -2.683901 -2.12132 -2.12132 
C -2.683901 -1.55874 -3 -0.795609 -3 0 
C -3 0.795609 -2.683901 1.55874 -2.12132 2.12132 
C -1.55874 2.683901 -0.795609 3 0 3 
z
"/>
    </defs>
    <g clip-path="url(#p606fea6dac)">
     <use xlink:href="#C0_0_3b6fdc396b" x="120.174545" y="129.160023" style="fill: #1f77b4"/>
    </g>
    <g clip-path="url(#p606fea6dac)">
     <use xlink:href="#C0_0_3b6fdc396b" x="161.263636" y="136.008205" style="fill: #d62728"/>
    </g>
    <g clip-path="url(#p606fea6dac)">
     <use xlink:href="#C0_0_3b6fdc396b" x="72.237273" y="163.400932" style="fill: #d62728"/>
    </g>
    <g clip-path="url(#p606fea6dac)">
     <use xlink:href="#C0_0_3b6fdc396b" x="113.326364" y="115.463659" style="fill: #1f77b4"/>
    </g>
    <g clip-path="url(#p606fea6dac)">
     <use xlink:href="#C0_0_3b6fdc396b" x="147.567273" y="122.311841" style="fill: #d62728"/>
    </g>
    <g clip-path="url(#p606fea6dac)">
     <use xlink:href="#C0_0_3b6fdc396b" x="133.870909" y="94.919114" style="fill: #1f77b4"/>
    </g>
    <g clip-path="url(#p606fea6dac)">
     <use xlink:href="#C0_0_3b6fdc396b" x="140.719091" y="33.285477" style="fill: #d62728"/>
    </g>
    <g clip-path="url(#p606fea6dac)">
     <use xlink:href="#C0_0_3b6fdc396b" x="58.540909" y="46.981841" style="fill: #1f77b4"/>
    </g>
    <g clip-path="url(#p606fea6dac)">
     <use xlink:href="#C0_0_3b6fdc396b" x="79.085455" y="156.55275" style="fill: #d62728"/>
    </g>
    <g clip-path="url(#p606fea6dac)">
     <use xlink:href="#C0_0_3b6fdc396b" x="168.111818" y="88.070932" style="fill: #1f77b4"/>
    </g>
    <g clip-path="url(#p606fea6dac)">
     <use xlink:href="#C0_0_3b6fdc396b" x="85.933636" y="142.856386" style="fill: #1f77b4"/>
    </g>
    <g clip-path="url(#p606fea6dac)">
     <use xlink:href="#C0_0_3b6fdc396b" x="92.781818" y="101.767295" style="fill: #d62728"/>
    </g>
    <g clip-path="url(#p606fea6dac)">
     <use xlink:href="#C0_0_3b6fdc396b" x="51.692727" y="129.160023" style="fill: #d62728"/>
    </g>
    <g clip-path="url(#p606fea6dac)">
     <use xlink:href="#C0_0_3b6fdc396b" x="154.415455" y="33.285477" style="fill: #1f77b4"/>
    </g>
    <g clip-path="url(#p606fea6dac)">
     <use xlink:href="#C0_0_3b6fdc396b" x="37.996364" y="136.008205" style="fill: #d62728"/>
    </g>
    <g clip-path="url(#p606fea6dac)">
     <use xlink:href="#C0_0_3b6fdc396b" x="79.085455" y="108.615477" style="fill: #1f77b4"/>
    </g>
    <g clip-path="url(#p606fea6dac)">
     <use xlink:href="#C0_0_3b6fdc396b" x="85.933636" y="122.311841" style="fill: #d62728"/>
    </g>
    <g clip-path="url(#p606fea6dac)">
     <use xlink:href="#C0_0_3b6fdc396b" x="65.389091" y="129.160023" style="fill: #1f77b4"/>
    </g>
    <g clip-path="url(#p606fea6dac)">
     <use xlink:href="#C0_0_3b6fdc396b" x="31.148182" y="163.400932" style="fill: #1f77b4"/>
    </g>
    <g clip-path="url(#p606fea6dac)">
     <use xlink:href="#C0_0_3b6fdc396b" x="58.540909" y="122.311841" style="fill: #1f77b4"/>
    </g>
   </g>
   <g id="PathCollection_2"/>
   <g id="PathCollection_3"/>
   <g id="patch_3">
    <path d="M 72.237273 222.295295 
C 87.856241 222.295295 102.837599 216.089814 113.881877 205.045536 
C 124.926155 194.001258 131.131636 179.0199 131.131636 163.400932 
C 131.131636 147.781964 124.926155 132.800606 113.881877 121.756328 
C 102.837599 110.71205 87.856241 104.506568 72.237273 104.506568 
C 56.618305 104.506568 41.636947 110.71205 30.592669 121.756328 
C 19.548391 132.800606 13.342909 147.781964 13.342909 163.400932 
C 13.342909 179.0199 19.548391 194.001258 30.592669 205.045536 
C 41.636947 216.089814 56.618305 222.295295 72.237273 222.295295 
" clip-path="url(#p606fea6dac)" style="fill: none; stroke: #ffa500; stroke-width: 0.75; stroke-linejoin: miter"/>
   </g>
   <g id="patch_4">
    <path d="M 37.996364 179.836568 
C 49.619782 179.836568 60.768699 175.218535 68.987697 166.999538 
C 77.206694 158.78054 81.824727 147.631622 81.824727 136.008205 
C 81.824727 124.384787 77.206694 113.235869 68.987697 105.016871 
C 60.768699 96.797874 49.619782 92.179841 37.996364 92.179841 
C 26.372946 92.179841 15.224028 96.797874 7.005031 105.016871 
C -1.213967 113.235869 -5.832 124.384787 -5.832 136.008205 
C -5.832 147.631622 -1.213967 158.78054 7.005031 166.999538 
C 15.224028 175.218535 26.372946 179.836568 37.996364 179.836568 
L 37.996364 179.836568 
z
" clip-path="url(#p606fea6dac)" style="fill: none; stroke: #800080; stroke-width: 0.75; stroke-linejoin: miter"/>
   </g>
   <g id="patch_5">
    <path d="M 37.996364 246.400895 
C 67.272847 246.400895 95.354184 234.769225 116.055784 214.067625 
C 136.757384 193.366025 148.389055 165.284688 148.389055 136.008205 
C 148.389055 106.731721 136.757384 78.650384 116.055784 57.948784 
C 95.354184 37.247184 67.272847 25.615514 37.996364 25.615514 
C 8.71988 25.615514 -19.361456 37.247184 -40.063057 57.948784 
C -60.764657 78.650384 -72.396327 106.731721 -72.396327 136.008205 
C -72.396327 165.284688 -60.764657 193.366025 -40.063057 214.067625 
C -19.361456 234.769225 8.71988 246.400895 37.996364 246.400895 
" clip-path="url(#p606fea6dac)" style="fill: none; stroke: #800080; stroke-width: 0.75; stroke-linejoin: miter"/>
   </g>
   <g id="matplotlib.axis_1">
    <g id="xtick_1">
     <g id="line2d_1">
      <defs>
       <path id="m07d6d0515f" d="M 0 0 
L 0 3.5 
" style="stroke: #000000; stroke-width: 0.8"/>
      </defs>
      <g>
       <use xlink:href="#m07d6d0515f" x="31.148182" y="169.906705" style="stroke: #000000; stroke-width: 0.8"/>
      </g>
     </g>
     <g id="text_1">
      <!-- 0 -->
      <g transform="translate(28.148182 185.239205) scale(0.12 -0.12)">
       <defs>
        <path id="TimesNewRomanPSMT-30" d="M 231 2094 
Q 231 2819 450 3342 
Q 669 3866 1031 4122 
Q 1313 4325 1613 4325 
Q 2100 4325 2488 3828 
Q 2972 3213 2972 2159 
Q 2972 1422 2759 906 
Q 2547 391 2217 158 
Q 1888 -75 1581 -75 
Q 975 -75 572 641 
Q 231 1244 231 2094 
z
M 844 2016 
Q 844 1141 1059 588 
Q 1238 122 1591 122 
Q 1759 122 1940 273 
Q 2122 425 2216 781 
Q 2359 1319 2359 2297 
Q 2359 3022 2209 3506 
Q 2097 3866 1919 4016 
Q 1791 4119 1609 4119 
Q 1397 4119 1231 3928 
Q 1006 3669 925 3112 
Q 844 2556 844 2016 
z
" transform="scale(0.015625)"/>
       </defs>
       <use xlink:href="#TimesNewRomanPSMT-30"/>
      </g>
     </g>
    </g>
    <g id="xtick_2">
     <g id="line2d_2">
      <g>
       <use xlink:href="#m07d6d0515f" x="99.63" y="169.906705" style="stroke: #000000; stroke-width: 0.8"/>
      </g>
     </g>
     <g id="text_2">
      <!-- 10 -->
      <g transform="translate(93.63 185.239205) scale(0.12 -0.12)">
       <defs>
        <path id="TimesNewRomanPSMT-31" d="M 750 3822 
L 1781 4325 
L 1884 4325 
L 1884 747 
Q 1884 391 1914 303 
Q 1944 216 2037 169 
Q 2131 122 2419 116 
L 2419 0 
L 825 0 
L 825 116 
Q 1125 122 1212 167 
Q 1300 213 1334 289 
Q 1369 366 1369 747 
L 1369 3034 
Q 1369 3497 1338 3628 
Q 1316 3728 1258 3775 
Q 1200 3822 1119 3822 
Q 1003 3822 797 3725 
L 750 3822 
z
" transform="scale(0.015625)"/>
       </defs>
       <use xlink:href="#TimesNewRomanPSMT-31"/>
       <use xlink:href="#TimesNewRomanPSMT-30" x="50"/>
      </g>
     </g>
    </g>
    <g id="xtick_3">
     <g id="line2d_3">
      <g>
       <use xlink:href="#m07d6d0515f" x="168.111818" y="169.906705" style="stroke: #000000; stroke-width: 0.8"/>
      </g>
     </g>
     <g id="text_3">
      <!-- 20 -->
      <g transform="translate(162.111818 185.239205) scale(0.12 -0.12)">
       <defs>
        <path id="TimesNewRomanPSMT-32" d="M 2934 816 
L 2638 0 
L 138 0 
L 138 116 
Q 1241 1122 1691 1759 
Q 2141 2397 2141 2925 
Q 2141 3328 1894 3587 
Q 1647 3847 1303 3847 
Q 991 3847 742 3664 
Q 494 3481 375 3128 
L 259 3128 
Q 338 3706 661 4015 
Q 984 4325 1469 4325 
Q 1984 4325 2329 3994 
Q 2675 3663 2675 3213 
Q 2675 2891 2525 2569 
Q 2294 2063 1775 1497 
Q 997 647 803 472 
L 1909 472 
Q 2247 472 2383 497 
Q 2519 522 2628 598 
Q 2738 675 2819 816 
L 2934 816 
z
" transform="scale(0.015625)"/>
       </defs>
       <use xlink:href="#TimesNewRomanPSMT-32"/>
       <use xlink:href="#TimesNewRomanPSMT-30" x="50"/>
      </g>
     </g>
    </g>
   </g>
   <g id="matplotlib.axis_2">
    <g id="ytick_1">
     <g id="line2d_4">
      <defs>
       <path id="mf9dbcd813f" d="M 0 0 
L -3.5 0 
" style="stroke: #000000; stroke-width: 0.8"/>
      </defs>
      <g>
       <use xlink:href="#mf9dbcd813f" x="24.3" y="163.400932" style="stroke: #000000; stroke-width: 0.8"/>
      </g>
     </g>
     <g id="text_4">
      <!-- 0 -->
      <g transform="translate(11.3 167.567182) scale(0.12 -0.12)">
       <use xlink:href="#TimesNewRomanPSMT-30"/>
      </g>
     </g>
    </g>
    <g id="ytick_2">
     <g id="line2d_5">
      <g>
       <use xlink:href="#mf9dbcd813f" x="24.3" y="94.919114" style="stroke: #000000; stroke-width: 0.8"/>
      </g>
     </g>
     <g id="text_5">
      <!-- 10 -->
      <g transform="translate(5.3 99.085364) scale(0.12 -0.12)">
       <use xlink:href="#TimesNewRomanPSMT-31"/>
       <use xlink:href="#TimesNewRomanPSMT-30" x="50"/>
      </g>
     </g>
    </g>
    <g id="ytick_3">
     <g id="line2d_6">
      <g>
       <use xlink:href="#mf9dbcd813f" x="24.3" y="26.437295" style="stroke: #000000; stroke-width: 0.8"/>
      </g>
     </g>
     <g id="text_6">
      <!-- 20 -->
      <g transform="translate(5.3 30.603545) scale(0.12 -0.12)">
       <use xlink:href="#TimesNewRomanPSMT-32"/>
       <use xlink:href="#TimesNewRomanPSMT-30" x="50"/>
      </g>
     </g>
    </g>
   </g>
   <g id="patch_6">
    <path d="M 24.3 169.906705 
L 24.3 26.437295 
" style="fill: none; stroke: #000000; stroke-width: 0.8; stroke-linejoin: miter; stroke-linecap: square"/>
   </g>
   <g id="patch_7">
    <path d="M 174.96 169.906705 
L 174.96 26.437295 
" style="fill: none; stroke: #000000; stroke-width: 0.8; stroke-linejoin: miter; stroke-linecap: square"/>
   </g>
   <g id="patch_8">
    <path d="M 24.3 169.906705 
L 174.96 169.906705 
" style="fill: none; stroke: #000000; stroke-width: 0.8; stroke-linejoin: miter; stroke-linecap: square"/>
   </g>
   <g id="patch_9">
    <path d="M 24.3 26.437295 
L 174.96 26.437295 
" style="fill: none; stroke: #000000; stroke-width: 0.8; stroke-linejoin: miter; stroke-linecap: square"/>
   </g>
  </g>
 </g>
 <defs>
  <clipPath id="p606fea6dac">
   <rect x="24.3" y="26.437295" width="150.66" height="143.469409"/>
  </clipPath>
 </defs>
</svg>
