<?xml version="1.0" encoding="utf-8" standalone="no"?>
<!DOCTYPE svg PUBLIC "-//W3C//DTD SVG 1.1//EN"
  "http://www.w3.org/Graphics/SVG/1.1/DTD/svg11.dtd">
<svg xmlns:xlink="http://www.w3.org/1999/xlink" width="216pt" height="216pt" viewBox="0 0 216 216" xmlns="http://www.w3.org/2000/svg" version="1.1">
 <metadata>
  <rdf:RDF xmlns:dc="http://purl.org/dc/elements/1.1/" xmlns:cc="http://creativecommons.org/ns#" xmlns:rdf="http://www.w3.org/1999/02/22-rdf-syntax-ns#">
   <cc:Work>
    <dc:type rdf:resource="http://purl.org/dc/dcmitype/StillImage"/>
    <dc:date>2023-02-22T22:19:38.087818</dc:date>
    <dc:format>image/svg+xml</dc:format>
    <dc:creator>
     <cc:Agent>
      <dc:title>Matplotlib v3.5.1, https://matplotlib.org/</dc:title>
     </cc:Agent>
    </dc:creator>
   </cc:Work>
  </rdf:RDF>
 </metadata>
 <defs>
  <style type="text/css">*{stroke-linejoin: round; stroke-linecap: butt}</style>
 </defs>
 <g id="figure_1">
  <g id="patch_1">
   <path d="M 0 216 
L 216 216 
L 216 0 
L 0 0 
L 0 216 
z
" style="fill: none"/>
  </g>
  <g id="axes_1">
   <g id="patch_2">
    <path d="M 27 187.165227 
L 194.4 187.165227 
L 194.4 27.754773 
L 27 27.754773 
z
" style="fill: #ffffff"/>
   </g>
   <g id="PathCollection_1">
    <defs>
     <path id="C0_0_995c357856" d="M 0 3 
C 0.795609 3 1.55874 2.683901 2.12132 2.12132 
C 2.683901 1.55874 3 0.795609 3 -0 
C 3 -0.795609 2.683901 -1.55874 2.12132 -2.12132 
C 1.55874 -2.683901 0.795609 -3 0 -3 
C -0.795609 -3 -1.55874 -2.683901 -2.12132 -2.12132 
C -2.683901 -1.55874 -3 -0.795609 -3 0 
C -3 0.795609 -2.683901 1.55874 -2.12132 2.12132 
C -1.55874 2.683901 -0.795609 3 0 3 
z
"/>
    </defs>
    <g clip-path="url(#p9fd8a5d350)">
     <use xlink:href="#C0_0_995c357856" x="133.527273" y="141.891136" style="fill: #1f77b4; stroke: #ffffff; stroke-width: 0.48"/>
    </g>
    <g clip-path="url(#p9fd8a5d350)">
     <use xlink:href="#C0_0_995c357856" x="179.181818" y="149.500227" style="fill: #1f77b4; stroke: #ffffff; stroke-width: 0.48"/>
    </g>
    <g clip-path="url(#p9fd8a5d350)">
     <use xlink:href="#C0_0_995c357856" x="80.263636" y="179.936591" style="fill: #1f77b4; stroke: #ffffff; stroke-width: 0.48"/>
    </g>
    <g clip-path="url(#p9fd8a5d350)">
     <use xlink:href="#C0_0_995c357856" x="125.918182" y="126.672955" style="fill: #1f77b4; stroke: #ffffff; stroke-width: 0.48"/>
    </g>
    <g clip-path="url(#p9fd8a5d350)">
     <use xlink:href="#C0_0_995c357856" x="163.963636" y="134.282045" style="fill: #1f77b4; stroke: #ffffff; stroke-width: 0.48"/>
    </g>
    <g clip-path="url(#p9fd8a5d350)">
     <use xlink:href="#C0_0_995c357856" x="148.745455" y="103.845682" style="fill: #1f77b4; stroke: #ffffff; stroke-width: 0.48"/>
    </g>
    <g clip-path="url(#p9fd8a5d350)">
     <use xlink:href="#C0_0_995c357856" x="156.354545" y="35.363864" style="fill: #d62728; stroke: #ffffff; stroke-width: 0.48"/>
    </g>
    <g clip-path="url(#p9fd8a5d350)">
     <use xlink:href="#C0_0_995c357856" x="65.045455" y="50.582045" style="fill: #1f77b4; stroke: #ffffff; stroke-width: 0.48"/>
    </g>
    <g clip-path="url(#p9fd8a5d350)">
     <use xlink:href="#C0_0_995c357856" x="87.872727" y="172.3275" style="fill: #1f77b4; stroke: #ffffff; stroke-width: 0.48"/>
    </g>
    <g clip-path="url(#p9fd8a5d350)">
     <use xlink:href="#C0_0_995c357856" x="186.790909" y="96.236591" style="fill: #1f77b4; stroke: #ffffff; stroke-width: 0.48"/>
    </g>
    <g clip-path="url(#p9fd8a5d350)">
     <use xlink:href="#C0_0_995c357856" x="95.481818" y="157.109318" style="fill: #1f77b4; stroke: #ffffff; stroke-width: 0.48"/>
    </g>
    <g clip-path="url(#p9fd8a5d350)">
     <use xlink:href="#C0_0_995c357856" x="103.090909" y="111.454773" style="fill: #d62728; stroke: #ffffff; stroke-width: 0.48"/>
    </g>
    <g clip-path="url(#p9fd8a5d350)">
     <use xlink:href="#C0_0_995c357856" x="57.436364" y="141.891136" style="fill: #d62728; stroke: #ffffff; stroke-width: 0.48"/>
    </g>
    <g clip-path="url(#p9fd8a5d350)">
     <use xlink:href="#C0_0_995c357856" x="171.572727" y="35.363864" style="fill: #d62728; stroke: #ffffff; stroke-width: 0.48"/>
    </g>
    <g clip-path="url(#p9fd8a5d350)">
     <use xlink:href="#C0_0_995c357856" x="42.218182" y="149.500227" style="fill: #1f77b4; stroke: #ffffff; stroke-width: 0.48"/>
    </g>
    <g clip-path="url(#p9fd8a5d350)">
     <use xlink:href="#C0_0_995c357856" x="87.872727" y="119.063864" style="fill: #1f77b4; stroke: #ffffff; stroke-width: 0.48"/>
    </g>
    <g clip-path="url(#p9fd8a5d350)">
     <use xlink:href="#C0_0_995c357856" x="95.481818" y="134.282045" style="fill: #d62728; stroke: #ffffff; stroke-width: 0.48"/>
    </g>
    <g clip-path="url(#p9fd8a5d350)">
     <use xlink:href="#C0_0_995c357856" x="72.654545" y="141.891136" style="fill: #1f77b4; stroke: #ffffff; stroke-width: 0.48"/>
    </g>
    <g clip-path="url(#p9fd8a5d350)">
     <use xlink:href="#C0_0_995c357856" x="34.609091" y="179.936591" style="fill: #d62728; stroke: #ffffff; stroke-width: 0.48"/>
    </g>
    <g clip-path="url(#p9fd8a5d350)">
     <use xlink:href="#C0_0_995c357856" x="65.045455" y="134.282045" style="fill: #d62728; stroke: #ffffff; stroke-width: 0.48"/>
    </g>
   </g>
   <g id="PathCollection_2"/>
   <g id="PathCollection_3"/>
   <g id="patch_3">
    <path d="M 34.609091 268.734682 
C 58.15862 268.734682 80.746792 259.378355 97.398823 242.726323 
C 114.050855 226.074292 123.407182 203.48612 123.407182 179.936591 
C 123.407182 156.387062 114.050855 133.79889 97.398823 117.146859 
C 80.746792 100.494827 58.15862 91.1385 34.609091 91.1385 
C 11.059562 91.1385 -11.52861 100.494827 -28.180641 117.146859 
C -44.832673 133.79889 -54.189 156.387062 -54.189 179.936591 
C -54.189 203.48612 -44.832673 226.074292 -28.180641 242.726323 
C -11.52861 259.378355 11.059562 268.734682 34.609091 268.734682 
" clip-path="url(#p9fd8a5d350)" style="fill: none; stroke: #000000; stroke-linejoin: miter"/>
   </g>
   <g id="patch_4">
    <path d="M 57.436364 180.240955 
C 67.606854 180.240955 77.362157 176.200176 84.55378 169.008553 
C 91.745403 161.81693 95.786182 152.061627 95.786182 141.891136 
C 95.786182 131.720646 91.745403 121.965343 84.55378 114.77372 
C 77.362157 107.582097 67.606854 103.541318 57.436364 103.541318 
C 47.265873 103.541318 37.51057 107.582097 30.318947 114.77372 
C 23.127324 121.965343 19.086545 131.720646 19.086545 141.891136 
C 19.086545 152.061627 23.127324 161.81693 30.318947 169.008553 
C 37.51057 176.200176 47.265873 180.240955 57.436364 180.240955 
L 57.436364 180.240955 
z
" clip-path="url(#p9fd8a5d350)" style="fill: none; stroke: #000000; stroke-linejoin: miter"/>
   </g>
   <g id="patch_5">
    <path d="M 156.354545 128.042591 
C 180.933231 128.042591 204.508547 118.277376 221.888302 100.89762 
C 239.268057 83.517865 249.033273 59.942549 249.033273 35.363864 
C 249.033273 10.785178 239.268057 -12.790138 221.888302 -30.169893 
C 204.508547 -47.549648 180.933231 -57.314864 156.354545 -57.314864 
C 131.77586 -57.314864 108.200544 -47.549648 90.820789 -30.169893 
C 73.441034 -12.790138 63.675818 10.785178 63.675818 35.363864 
C 63.675818 59.942549 73.441034 83.517865 90.820789 100.89762 
C 108.200544 118.277376 131.77586 128.042591 156.354545 128.042591 
L 156.354545 128.042591 
z
" clip-path="url(#p9fd8a5d350)" style="fill: none; stroke: #000000; stroke-linejoin: miter"/>
   </g>
   <g id="matplotlib.axis_1">
    <g id="xtick_1">
     <g id="line2d_1">
      <defs>
       <path id="m5c708b7f4d" d="M 0 0 
L 0 3.5 
" style="stroke: #000000; stroke-width: 0.8"/>
      </defs>
      <g>
       <use xlink:href="#m5c708b7f4d" x="34.609091" y="187.165227" style="stroke: #000000; stroke-width: 0.8"/>
      </g>
     </g>
     <g id="text_1">
      <!-- 0 -->
      <g transform="translate(31.609091 202.497727)scale(0.12 -0.12)">
       <defs>
        <path id="TimesNewRomanPSMT-30" d="M 231 2094 
Q 231 2819 450 3342 
Q 669 3866 1031 4122 
Q 1313 4325 1613 4325 
Q 2100 4325 2488 3828 
Q 2972 3213 2972 2159 
Q 2972 1422 2759 906 
Q 2547 391 2217 158 
Q 1888 -75 1581 -75 
Q 975 -75 572 641 
Q 231 1244 231 2094 
z
M 844 2016 
Q 844 1141 1059 588 
Q 1238 122 1591 122 
Q 1759 122 1940 273 
Q 2122 425 2216 781 
Q 2359 1319 2359 2297 
Q 2359 3022 2209 3506 
Q 2097 3866 1919 4016 
Q 1791 4119 1609 4119 
Q 1397 4119 1231 3928 
Q 1006 3669 925 3112 
Q 844 2556 844 2016 
z
" transform="scale(0.015625)"/>
       </defs>
       <use xlink:href="#TimesNewRomanPSMT-30"/>
      </g>
     </g>
    </g>
    <g id="xtick_2">
     <g id="line2d_2">
      <g>
       <use xlink:href="#m5c708b7f4d" x="110.7" y="187.165227" style="stroke: #000000; stroke-width: 0.8"/>
      </g>
     </g>
     <g id="text_2">
      <!-- 10 -->
      <g transform="translate(104.7 202.497727)scale(0.12 -0.12)">
       <defs>
        <path id="TimesNewRomanPSMT-31" d="M 750 3822 
L 1781 4325 
L 1884 4325 
L 1884 747 
Q 1884 391 1914 303 
Q 1944 216 2037 169 
Q 2131 122 2419 116 
L 2419 0 
L 825 0 
L 825 116 
Q 1125 122 1212 167 
Q 1300 213 1334 289 
Q 1369 366 1369 747 
L 1369 3034 
Q 1369 3497 1338 3628 
Q 1316 3728 1258 3775 
Q 1200 3822 1119 3822 
Q 1003 3822 797 3725 
L 750 3822 
z
" transform="scale(0.015625)"/>
       </defs>
       <use xlink:href="#TimesNewRomanPSMT-31"/>
       <use xlink:href="#TimesNewRomanPSMT-30" x="50"/>
      </g>
     </g>
    </g>
    <g id="xtick_3">
     <g id="line2d_3">
      <g>
       <use xlink:href="#m5c708b7f4d" x="186.790909" y="187.165227" style="stroke: #000000; stroke-width: 0.8"/>
      </g>
     </g>
     <g id="text_3">
      <!-- 20 -->
      <g transform="translate(180.790909 202.497727)scale(0.12 -0.12)">
       <defs>
        <path id="TimesNewRomanPSMT-32" d="M 2934 816 
L 2638 0 
L 138 0 
L 138 116 
Q 1241 1122 1691 1759 
Q 2141 2397 2141 2925 
Q 2141 3328 1894 3587 
Q 1647 3847 1303 3847 
Q 991 3847 742 3664 
Q 494 3481 375 3128 
L 259 3128 
Q 338 3706 661 4015 
Q 984 4325 1469 4325 
Q 1984 4325 2329 3994 
Q 2675 3663 2675 3213 
Q 2675 2891 2525 2569 
Q 2294 2063 1775 1497 
Q 997 647 803 472 
L 1909 472 
Q 2247 472 2383 497 
Q 2519 522 2628 598 
Q 2738 675 2819 816 
L 2934 816 
z
" transform="scale(0.015625)"/>
       </defs>
       <use xlink:href="#TimesNewRomanPSMT-32"/>
       <use xlink:href="#TimesNewRomanPSMT-30" x="50"/>
      </g>
     </g>
    </g>
   </g>
   <g id="matplotlib.axis_2">
    <g id="ytick_1">
     <g id="line2d_4">
      <defs>
       <path id="m38571fb834" d="M 0 0 
L -3.5 0 
" style="stroke: #000000; stroke-width: 0.8"/>
      </defs>
      <g>
       <use xlink:href="#m38571fb834" x="27" y="179.936591" style="stroke: #000000; stroke-width: 0.8"/>
      </g>
     </g>
     <g id="text_4">
      <!-- 0 -->
      <g transform="translate(14 184.102841)scale(0.12 -0.12)">
       <use xlink:href="#TimesNewRomanPSMT-30"/>
      </g>
     </g>
    </g>
    <g id="ytick_2">
     <g id="line2d_5">
      <g>
       <use xlink:href="#m38571fb834" x="27" y="103.845682" style="stroke: #000000; stroke-width: 0.8"/>
      </g>
     </g>
     <g id="text_5">
      <!-- 10 -->
      <g transform="translate(8 108.011932)scale(0.12 -0.12)">
       <use xlink:href="#TimesNewRomanPSMT-31"/>
       <use xlink:href="#TimesNewRomanPSMT-30" x="50"/>
      </g>
     </g>
    </g>
    <g id="ytick_3">
     <g id="line2d_6">
      <g>
       <use xlink:href="#m38571fb834" x="27" y="27.754773" style="stroke: #000000; stroke-width: 0.8"/>
      </g>
     </g>
     <g id="text_6">
      <!-- 20 -->
      <g transform="translate(8 31.921023)scale(0.12 -0.12)">
       <use xlink:href="#TimesNewRomanPSMT-32"/>
       <use xlink:href="#TimesNewRomanPSMT-30" x="50"/>
      </g>
     </g>
    </g>
   </g>
   <g id="patch_6">
    <path d="M 27 187.165227 
L 27 27.754773 
" style="fill: none; stroke: #000000; stroke-width: 0.8; stroke-linejoin: miter; stroke-linecap: square"/>
   </g>
   <g id="patch_7">
    <path d="M 194.4 187.165227 
L 194.4 27.754773 
" style="fill: none; stroke: #000000; stroke-width: 0.8; stroke-linejoin: miter; stroke-linecap: square"/>
   </g>
   <g id="patch_8">
    <path d="M 27 187.165227 
L 194.4 187.165227 
" style="fill: none; stroke: #000000; stroke-width: 0.8; stroke-linejoin: miter; stroke-linecap: square"/>
   </g>
   <g id="patch_9">
    <path d="M 27 27.754773 
L 194.4 27.754773 
" style="fill: none; stroke: #000000; stroke-width: 0.8; stroke-linejoin: miter; stroke-linecap: square"/>
   </g>
  </g>
 </g>
 <defs>
  <clipPath id="p9fd8a5d350">
   <rect x="27" y="27.754773" width="167.4" height="159.410455"/>
  </clipPath>
 </defs>
</svg>
