<?xml version="1.0" encoding="UTF-8" standalone="no"?>
<svg
   width="169.80125pt"
   height="162.88565pt"
   viewBox="0 0 169.80126 162.88566"
   version="1.1"
   id="svg28328"
   sodipodi:docname="lvl3_vp.svg"
   inkscape:version="1.2.2 (1:1.2.2+202212051550+b0a8486541)"
   xmlns:inkscape="http://www.inkscape.org/namespaces/inkscape"
   xmlns:sodipodi="http://sodipodi.sourceforge.net/DTD/sodipodi-0.dtd"
   xmlns:xlink="http://www.w3.org/1999/xlink"
   xmlns="http://www.w3.org/2000/svg"
   xmlns:svg="http://www.w3.org/2000/svg"
   xmlns:rdf="http://www.w3.org/1999/02/22-rdf-syntax-ns#"
   xmlns:cc="http://creativecommons.org/ns#"
   xmlns:dc="http://purl.org/dc/elements/1.1/">
  <sodipodi:namedview
     id="namedview28330"
     pagecolor="#ffffff"
     bordercolor="#000000"
     borderopacity="0.25"
     inkscape:showpageshadow="2"
     inkscape:pageopacity="0.0"
     inkscape:pagecheckerboard="0"
     inkscape:deskcolor="#d1d1d1"
     inkscape:document-units="pt"
     showgrid="false"
     inkscape:zoom="3.3796297"
     inkscape:cx="122.20274"
     inkscape:cy="99.863011"
     inkscape:window-width="1848"
     inkscape:window-height="1016"
     inkscape:window-x="72"
     inkscape:window-y="27"
     inkscape:window-maximized="1"
     inkscape:current-layer="svg28328" />
  <metadata
     id="metadata28111">
    <rdf:RDF>
      <cc:Work>
        <dc:type
           rdf:resource="http://purl.org/dc/dcmitype/StillImage" />
        <dc:date>2023-05-09T12:44:43.611271</dc:date>
        <dc:format>image/svg+xml</dc:format>
        <dc:creator>
          <cc:Agent>
            <dc:title>Matplotlib v3.7.0, https://matplotlib.org/</dc:title>
          </cc:Agent>
        </dc:creator>
      </cc:Work>
    </rdf:RDF>
  </metadata>
  <defs
     id="defs28115">
    <style
       type="text/css"
       id="style28113">*{stroke-linejoin: round; stroke-linecap: butt}</style>
  </defs>
  <g
     id="axes_1"
     transform="translate(-5.55875,-22.49417)">
    <g
       id="patch_2">
      <path
         d="M 24.3,169.9067 H 174.96 V 26.437295 H 24.3 Z"
         style="fill:#ffffff"
         id="path28120" />
    </g>
    <g
       id="PathCollection_1">
      <defs
         id="defs28124">
        <path
           id="C0_0_e821e5fcc0"
           d="M 0,3 C 0.795609,3 1.55874,2.683901 2.12132,2.12132 2.683901,1.55874 3,0.795609 3,0 3,-0.795609 2.683901,-1.55874 2.12132,-2.12132 1.55874,-2.683901 0.795609,-3 0,-3 -0.795609,-3 -1.55874,-2.683901 -2.12132,-2.12132 -2.683901,-1.55874 -3,-0.795609 -3,0 -3,0.795609 -2.683901,1.55874 -2.12132,2.12132 -1.55874,2.683901 -0.795609,3 0,3 Z" />
      </defs>
      <g
         clip-path="url(#pe2653454dc)"
         id="g28128">
        <use
           xlink:href="#C0_0_e821e5fcc0"
           x="120.17455"
           y="129.16002"
           style="fill:#1f77b4"
           id="use28126" />
      </g>
      <g
         clip-path="url(#pe2653454dc)"
         id="g28132">
        <use
           xlink:href="#C0_0_e821e5fcc0"
           x="161.26364"
           y="136.00821"
           style="fill:#1f77b4"
           id="use28130" />
      </g>
      <g
         clip-path="url(#pe2653454dc)"
         id="g28136">
        <use
           xlink:href="#C0_0_e821e5fcc0"
           x="72.237274"
           y="163.40092"
           style="fill:#1f77b4"
           id="use28134" />
      </g>
      <g
         clip-path="url(#pe2653454dc)"
         id="g28140">
        <use
           xlink:href="#C0_0_e821e5fcc0"
           x="113.32636"
           y="115.46366"
           style="fill:#1f77b4"
           id="use28138" />
      </g>
      <g
         clip-path="url(#pe2653454dc)"
         id="g28144">
        <use
           xlink:href="#C0_0_e821e5fcc0"
           x="147.56728"
           y="122.31184"
           style="fill:#1f77b4"
           id="use28142" />
      </g>
      <g
         clip-path="url(#pe2653454dc)"
         id="g28148">
        <use
           xlink:href="#C0_0_e821e5fcc0"
           x="133.87091"
           y="94.919113"
           style="fill:#1f77b4"
           id="use28146" />
      </g>
      <g
         clip-path="url(#pe2653454dc)"
         id="g28152">
        <use
           xlink:href="#C0_0_e821e5fcc0"
           x="140.71909"
           y="33.285477"
           style="fill:#d62728"
           id="use28150" />
      </g>
      <g
         clip-path="url(#pe2653454dc)"
         id="g28156">
        <use
           xlink:href="#C0_0_e821e5fcc0"
           x="58.540909"
           y="46.981842"
           style="fill:#1f77b4"
           id="use28154" />
      </g>
      <g
         clip-path="url(#pe2653454dc)"
         id="g28160">
        <use
           xlink:href="#C0_0_e821e5fcc0"
           x="79.085457"
           y="156.55275"
           style="fill:#1f77b4"
           id="use28158" />
      </g>
      <g
         clip-path="url(#pe2653454dc)"
         id="g28164">
        <use
           xlink:href="#C0_0_e821e5fcc0"
           x="168.11182"
           y="88.07093"
           style="fill:#1f77b4"
           id="use28162" />
      </g>
      <g
         clip-path="url(#pe2653454dc)"
         id="g28168">
        <use
           xlink:href="#C0_0_e821e5fcc0"
           x="85.93364"
           y="142.85638"
           style="fill:#1f77b4"
           id="use28166" />
      </g>
      <g
         clip-path="url(#pe2653454dc)"
         id="g28172">
        <use
           xlink:href="#C0_0_e821e5fcc0"
           x="92.781815"
           y="101.7673"
           style="fill:#d62728"
           id="use28170" />
      </g>
      <g
         clip-path="url(#pe2653454dc)"
         id="g28176">
        <use
           xlink:href="#C0_0_e821e5fcc0"
           x="51.692726"
           y="129.16002"
           style="fill:#d62728"
           id="use28174" />
      </g>
      <g
         clip-path="url(#pe2653454dc)"
         id="g28180">
        <use
           xlink:href="#C0_0_e821e5fcc0"
           x="154.41545"
           y="33.285477"
           style="fill:#d62728"
           id="use28178" />
      </g>
      <g
         clip-path="url(#pe2653454dc)"
         id="g28184">
        <use
           xlink:href="#C0_0_e821e5fcc0"
           x="37.996365"
           y="136.00821"
           style="fill:#1f77b4"
           id="use28182" />
      </g>
      <g
         clip-path="url(#pe2653454dc)"
         id="g28188">
        <use
           xlink:href="#C0_0_e821e5fcc0"
           x="79.085457"
           y="108.61548"
           style="fill:#1f77b4"
           id="use28186" />
      </g>
      <g
         clip-path="url(#pe2653454dc)"
         id="g28192">
        <use
           xlink:href="#C0_0_e821e5fcc0"
           x="85.93364"
           y="122.31184"
           style="fill:#d62728"
           id="use28190" />
      </g>
      <g
         clip-path="url(#pe2653454dc)"
         id="g28196">
        <use
           xlink:href="#C0_0_e821e5fcc0"
           x="65.389091"
           y="129.16002"
           style="fill:#1f77b4"
           id="use28194" />
      </g>
      <g
         clip-path="url(#pe2653454dc)"
         id="g28200">
        <use
           xlink:href="#C0_0_e821e5fcc0"
           x="31.148182"
           y="163.40092"
           style="fill:#d62728"
           id="use28198" />
      </g>
      <g
         clip-path="url(#pe2653454dc)"
         id="g28204">
        <use
           xlink:href="#C0_0_e821e5fcc0"
           x="58.540909"
           y="122.31184"
           style="fill:#d62728"
           id="use28202" />
      </g>
    </g>
    <g
       id="PathCollection_2" />
    <g
       id="PathCollection_3" />
    <g
       id="patch_3">
      <path
         d="m 31.148182,243.31921 c 21.194576,0 41.52393,-8.42069 56.510759,-23.40752 14.986829,-14.98683 23.407519,-35.31618 23.407519,-56.51076 0,-21.19457 -8.42069,-41.52393 -23.407519,-56.51076 C 72.672112,91.903344 52.342758,83.48265 31.148182,83.48265 c -21.194576,0 -41.523931,8.420694 -56.510759,23.40752 -14.986829,14.98683 -23.407523,35.31619 -23.407523,56.51076 0,21.19458 8.420694,41.52393 23.407523,56.51076 14.986828,14.98683 35.316183,23.40752 56.510759,23.40752"
         clip-path="url(#pe2653454dc)"
         style="fill:none;stroke:#000000;stroke-width:0.75;stroke-linejoin:miter"
         id="path28209" />
    </g>
    <g
       id="patch_4">
      <path
         d="m 51.692727,163.67486 c 9.153442,0 17.933214,-3.6367 24.405675,-10.10916 6.472461,-6.47246 10.109162,-15.25224 10.109162,-24.40568 0,-9.15344 -3.636701,-17.93321 -10.109162,-24.40567 -6.472461,-6.472463 -15.252233,-10.109164 -24.405675,-10.109164 -9.153441,0 -17.933214,3.636701 -24.405675,10.109164 -6.47246,6.47246 -10.109161,15.25223 -10.109161,24.40567 0,9.15344 3.636701,17.93322 10.109161,24.40568 6.472461,6.47246 15.252234,10.10916 24.405675,10.10916 z"
         clip-path="url(#pe2653454dc)"
         style="fill:none;stroke:#000000;stroke-width:0.75;stroke-linejoin:miter"
         id="path28212" />
    </g>
    <g
       id="patch_5">
      <path
         d="m 140.71909,116.69633 c 22.12082,0 43.3386,-8.78869 58.98038,-24.430472 15.64178,-15.64178 24.43047,-36.859564 24.43047,-58.980381 0,-22.120817 -8.78869,-43.338601 -24.43047,-58.980381 -15.64178,-15.641779 -36.85956,-24.430473 -58.98038,-24.430473 -22.12082,0 -43.3386,8.788694 -58.98038,24.430473 -15.64178,15.64178 -24.430474,36.859564 -24.430474,58.980381 0,22.120817 8.788694,43.338601 24.430474,58.980381 15.64178,15.641782 36.85956,24.430472 58.98038,24.430472 z"
         clip-path="url(#pe2653454dc)"
         style="fill:none;stroke:#000000;stroke-width:0.75;stroke-linejoin:miter"
         id="path28215" />
    </g>
    <g
       id="matplotlib.axis_1">
      <g
         id="xtick_1">
        <g
           id="line2d_1">
          <defs
             id="defs28219">
            <path
               id="m18dd159472"
               d="M 0,0 V 3.5"
               style="stroke:#000000;stroke-width:0.8" />
          </defs>
          <g
             id="g28223">
            <use
               xlink:href="#m18dd159472"
               x="31.148182"
               y="169.90671"
               style="stroke:#000000;stroke-width:0.8"
               id="use28221" />
          </g>
        </g>
        <g
           id="text_1">
          <!-- 0 -->
          <g
             transform="matrix(0.12,0,0,-0.12,28.148182,185.2392)"
             id="g28231">
            <defs
               id="defs28227">
              <path
                 id="TimesNewRomanPSMT-30"
                 d="m 231,2094 q 0,725 219,1248 219,524 581,780 282,203 582,203 487,0 875,-497 484,-615 484,-1669 0,-737 -213,-1253 Q 2547,391 2217,158 1888,-75 1581,-75 975,-75 572,641 231,1244 231,2094 Z m 613,-78 q 0,-875 215,-1428 179,-466 532,-466 168,0 349,151 182,152 276,508 143,538 143,1516 0,725 -150,1209 -112,360 -290,510 -128,103 -310,103 -212,0 -378,-191 -225,-259 -306,-816 -81,-556 -81,-1096 z"
                 transform="scale(0.015625)" />
            </defs>
            <use
               xlink:href="#TimesNewRomanPSMT-30"
               id="use28229" />
          </g>
        </g>
      </g>
      <g
         id="xtick_2">
        <g
           id="line2d_2">
          <g
             id="g28237">
            <use
               xlink:href="#m18dd159472"
               x="99.629997"
               y="169.90671"
               style="stroke:#000000;stroke-width:0.8"
               id="use28235" />
          </g>
        </g>
        <g
           id="text_2">
          <!-- 10 -->
          <g
             transform="matrix(0.12,0,0,-0.12,93.63,185.2392)"
             id="g28247">
            <defs
               id="defs28241">
              <path
                 id="TimesNewRomanPSMT-31"
                 d="m 750,3822 1031,503 h 103 V 747 q 0,-356 30,-444 30,-87 123,-134 94,-47 382,-53 V 0 H 825 v 116 q 300,6 387,51 88,46 122,122 35,77 35,458 v 2287 q 0,463 -31,594 -22,100 -80,147 -58,47 -139,47 -116,0 -322,-97 z"
                 transform="scale(0.015625)" />
            </defs>
            <use
               xlink:href="#TimesNewRomanPSMT-31"
               id="use28243" />
            <use
               xlink:href="#TimesNewRomanPSMT-30"
               x="50"
               id="use28245" />
          </g>
        </g>
      </g>
      <g
         id="xtick_3">
        <g
           id="line2d_3">
          <g
             id="g28253">
            <use
               xlink:href="#m18dd159472"
               x="168.11182"
               y="169.90671"
               style="stroke:#000000;stroke-width:0.8"
               id="use28251" />
          </g>
        </g>
        <g
           id="text_3">
          <!-- 20 -->
          <g
             transform="matrix(0.12,0,0,-0.12,162.11182,185.2392)"
             id="g28263">
            <defs
               id="defs28257">
              <path
                 id="TimesNewRomanPSMT-32"
                 d="M 2934,816 2638,0 H 138 v 116 q 1103,1006 1553,1643 450,638 450,1166 0,403 -247,662 -247,260 -591,260 -312,0 -561,-183 Q 494,3481 375,3128 H 259 q 79,578 402,887 323,310 808,310 515,0 860,-331 346,-331 346,-781 0,-322 -150,-644 Q 2294,2063 1775,1497 997,647 803,472 h 1106 q 338,0 474,25 136,25 245,101 110,77 191,218 z"
                 transform="scale(0.015625)" />
            </defs>
            <use
               xlink:href="#TimesNewRomanPSMT-32"
               id="use28259" />
            <use
               xlink:href="#TimesNewRomanPSMT-30"
               x="50"
               id="use28261" />
          </g>
        </g>
      </g>
    </g>
    <g
       id="matplotlib.axis_2">
      <g
         id="ytick_1">
        <g
           id="line2d_4">
          <defs
             id="defs28269">
            <path
               id="mee3b14540d"
               d="M 0,0 H -3.5"
               style="stroke:#000000;stroke-width:0.8" />
          </defs>
          <g
             id="g28273">
            <use
               xlink:href="#mee3b14540d"
               x="24.299999"
               y="163.40092"
               style="stroke:#000000;stroke-width:0.8"
               id="use28271" />
          </g>
        </g>
        <g
           id="text_4">
          <!-- 0 -->
          <g
             transform="matrix(0.12,0,0,-0.12,11.3,167.56718)"
             id="g28278">
            <use
               xlink:href="#TimesNewRomanPSMT-30"
               id="use28276" />
          </g>
        </g>
      </g>
      <g
         id="ytick_2">
        <g
           id="line2d_5">
          <g
             id="g28284">
            <use
               xlink:href="#mee3b14540d"
               x="24.299999"
               y="94.919113"
               style="stroke:#000000;stroke-width:0.8"
               id="use28282" />
          </g>
        </g>
        <g
           id="text_5">
          <!-- 10 -->
          <g
             transform="matrix(0.12,0,0,-0.12,5.3,99.085364)"
             id="g28291">
            <use
               xlink:href="#TimesNewRomanPSMT-31"
               id="use28287" />
            <use
               xlink:href="#TimesNewRomanPSMT-30"
               x="50"
               id="use28289" />
          </g>
        </g>
      </g>
      <g
         id="ytick_3">
        <g
           id="line2d_6">
          <g
             id="g28297">
            <use
               xlink:href="#mee3b14540d"
               x="24.299999"
               y="26.437296"
               style="stroke:#000000;stroke-width:0.8"
               id="use28295" />
          </g>
        </g>
        <g
           id="text_6">
          <!-- 20 -->
          <g
             transform="matrix(0.12,0,0,-0.12,5.3,30.603545)"
             id="g28304">
            <use
               xlink:href="#TimesNewRomanPSMT-32"
               id="use28300" />
            <use
               xlink:href="#TimesNewRomanPSMT-30"
               x="50"
               id="use28302" />
          </g>
        </g>
      </g>
    </g>
    <g
       id="patch_6">
      <path
         d="M 24.3,169.9067 V 26.437295"
         style="fill:none;stroke:#000000;stroke-width:0.8;stroke-linecap:square;stroke-linejoin:miter"
         id="path28309" />
    </g>
    <g
       id="patch_7">
      <path
         d="M 174.96,169.9067 V 26.437295"
         style="fill:none;stroke:#000000;stroke-width:0.8;stroke-linecap:square;stroke-linejoin:miter"
         id="path28312" />
    </g>
    <g
       id="patch_8">
      <path
         d="M 24.3,169.9067 H 174.96"
         style="fill:none;stroke:#000000;stroke-width:0.8;stroke-linecap:square;stroke-linejoin:miter"
         id="path28315" />
    </g>
    <g
       id="patch_9">
      <path
         d="M 24.3,26.437295 H 174.96"
         style="fill:none;stroke:#000000;stroke-width:0.8;stroke-linecap:square;stroke-linejoin:miter"
         id="path28318" />
    </g>
  </g>
  <defs
     id="defs28326">
    <clipPath
       id="pe2653454dc">
      <rect
         x="24.299999"
         y="26.437296"
         width="150.66"
         height="143.46941"
         id="rect28323" />
    </clipPath>
  </defs>
</svg>
