<?xml version="1.0" encoding="utf-8" standalone="no"?>
<!DOCTYPE svg PUBLIC "-//W3C//DTD SVG 1.1//EN"
  "http://www.w3.org/Graphics/SVG/1.1/DTD/svg11.dtd">
<svg xmlns:xlink="http://www.w3.org/1999/xlink" width="216pt" height="216pt" viewBox="0 0 216 216" xmlns="http://www.w3.org/2000/svg" version="1.1">
 <metadata>
  <rdf:RDF xmlns:dc="http://purl.org/dc/elements/1.1/" xmlns:cc="http://creativecommons.org/ns#" xmlns:rdf="http://www.w3.org/1999/02/22-rdf-syntax-ns#">
   <cc:Work>
    <dc:type rdf:resource="http://purl.org/dc/dcmitype/StillImage"/>
    <dc:date>2023-03-23T12:44:29.154488</dc:date>
    <dc:format>image/svg+xml</dc:format>
    <dc:creator>
     <cc:Agent>
      <dc:title>Matplotlib v3.5.1, https://matplotlib.org/</dc:title>
     </cc:Agent>
    </dc:creator>
   </cc:Work>
  </rdf:RDF>
 </metadata>
 <defs>
  <style type="text/css">*{stroke-linejoin: round; stroke-linecap: butt}</style>
 </defs>
 <g id="figure_1">
  <g id="patch_1">
   <path d="M 0 216 
L 216 216 
L 216 0 
L 0 0 
L 0 216 
z
" style="fill: none"/>
  </g>
  <g id="axes_1">
   <g id="patch_2">
    <path d="M 29.16 189 
L 192.24 189 
L 192.24 25.92 
L 29.16 25.92 
z
" style="fill: #ffffff"/>
   </g>
   <g id="PathCollection_1">
    <defs>
     <path id="C0_0_7d9c694caf" d="M 0 3 
C 0.795609 3 1.55874 2.683901 2.12132 2.12132 
C 2.683901 1.55874 3 0.795609 3 -0 
C 3 -0.795609 2.683901 -1.55874 2.12132 -2.12132 
C 1.55874 -2.683901 0.795609 -3 0 -3 
C -0.795609 -3 -1.55874 -2.683901 -2.12132 -2.12132 
C -2.683901 -1.55874 -3 -0.795609 -3 0 
C -3 0.795609 -2.683901 1.55874 -2.12132 2.12132 
C -1.55874 2.683901 -0.795609 3 0 3 
z
"/>
    </defs>
    <g clip-path="url(#pbd7c02784c)">
     <use xlink:href="#C0_0_7d9c694caf" x="135.409091" y="82.750909" style="fill: #1f77b4; stroke: #ffffff; stroke-width: 0.48"/>
    </g>
    <g clip-path="url(#pbd7c02784c)">
     <use xlink:href="#C0_0_7d9c694caf" x="85.990909" y="181.587273" style="fill: #1f77b4; stroke: #ffffff; stroke-width: 0.48"/>
    </g>
    <g clip-path="url(#pbd7c02784c)">
     <use xlink:href="#C0_0_7d9c694caf" x="36.572727" y="132.169091" style="fill: #1f77b4; stroke: #ffffff; stroke-width: 0.48"/>
    </g>
    <g clip-path="url(#pbd7c02784c)">
     <use xlink:href="#C0_0_7d9c694caf" x="184.827273" y="33.332727" style="fill: #1f77b4; stroke: #ffffff; stroke-width: 0.48"/>
    </g>
    <g clip-path="url(#pbd7c02784c)">
     <use xlink:href="#C0_0_7d9c694caf" x="135.409091" y="82.750909" style="fill: #1f77b4; stroke: #ffffff; stroke-width: 0.48"/>
    </g>
    <g clip-path="url(#pbd7c02784c)">
     <use xlink:href="#C0_0_7d9c694caf" x="135.409091" y="33.332727" style="fill: #1f77b4; stroke: #ffffff; stroke-width: 0.48"/>
    </g>
    <g clip-path="url(#pbd7c02784c)">
     <use xlink:href="#C0_0_7d9c694caf" x="184.827273" y="33.332727" style="fill: #1f77b4; stroke: #ffffff; stroke-width: 0.48"/>
    </g>
    <g clip-path="url(#pbd7c02784c)">
     <use xlink:href="#C0_0_7d9c694caf" x="184.827273" y="33.332727" style="fill: #1f77b4; stroke: #ffffff; stroke-width: 0.48"/>
    </g>
    <g clip-path="url(#pbd7c02784c)">
     <use xlink:href="#C0_0_7d9c694caf" x="184.827273" y="82.750909" style="fill: #1f77b4; stroke: #ffffff; stroke-width: 0.48"/>
    </g>
    <g clip-path="url(#pbd7c02784c)">
     <use xlink:href="#C0_0_7d9c694caf" x="184.827273" y="33.332727" style="fill: #1f77b4; stroke: #ffffff; stroke-width: 0.48"/>
    </g>
    <g clip-path="url(#pbd7c02784c)">
     <use xlink:href="#C0_0_7d9c694caf" x="85.990909" y="82.750909" style="fill: #1f77b4; stroke: #ffffff; stroke-width: 0.48"/>
    </g>
    <g clip-path="url(#pbd7c02784c)">
     <use xlink:href="#C0_0_7d9c694caf" x="36.572727" y="132.169091" style="fill: #1f77b4; stroke: #ffffff; stroke-width: 0.48"/>
    </g>
    <g clip-path="url(#pbd7c02784c)">
     <use xlink:href="#C0_0_7d9c694caf" x="135.409091" y="82.750909" style="fill: #1f77b4; stroke: #ffffff; stroke-width: 0.48"/>
    </g>
    <g clip-path="url(#pbd7c02784c)">
     <use xlink:href="#C0_0_7d9c694caf" x="184.827273" y="33.332727" style="fill: #1f77b4; stroke: #ffffff; stroke-width: 0.48"/>
    </g>
    <g clip-path="url(#pbd7c02784c)">
     <use xlink:href="#C0_0_7d9c694caf" x="85.990909" y="181.587273" style="fill: #1f77b4; stroke: #ffffff; stroke-width: 0.48"/>
    </g>
    <g clip-path="url(#pbd7c02784c)">
     <use xlink:href="#C0_0_7d9c694caf" x="135.409091" y="132.169091" style="fill: #1f77b4; stroke: #ffffff; stroke-width: 0.48"/>
    </g>
    <g clip-path="url(#pbd7c02784c)">
     <use xlink:href="#C0_0_7d9c694caf" x="85.990909" y="132.169091" style="fill: #1f77b4; stroke: #ffffff; stroke-width: 0.48"/>
    </g>
    <g clip-path="url(#pbd7c02784c)">
     <use xlink:href="#C0_0_7d9c694caf" x="36.572727" y="181.587273" style="fill: #1f77b4; stroke: #ffffff; stroke-width: 0.48"/>
    </g>
    <g clip-path="url(#pbd7c02784c)">
     <use xlink:href="#C0_0_7d9c694caf" x="85.990909" y="181.587273" style="fill: #d62728; stroke: #ffffff; stroke-width: 0.48"/>
    </g>
    <g clip-path="url(#pbd7c02784c)">
     <use xlink:href="#C0_0_7d9c694caf" x="36.572727" y="82.750909" style="fill: #d62728; stroke: #ffffff; stroke-width: 0.48"/>
    </g>
   </g>
   <g id="PathCollection_2"/>
   <g id="PathCollection_3"/>
   <g id="patch_3">
    <path d="M 36.572727 181.587273 
L 85.990909 181.587273 
L 85.990909 132.169091 
L 36.572727 132.169091 
L 36.572727 181.587273 
z
" clip-path="url(#pbd7c02784c)" style="fill: none; stroke-dasharray: 5.55,2.4; stroke-dashoffset: 0; stroke: #9467bd; stroke-width: 1.5; stroke-linejoin: miter"/>
   </g>
   <g id="patch_4">
    <path d="M 36.572727 132.169091 
L 135.409091 132.169091 
L 135.409091 82.750909 
L 36.572727 82.750909 
L 36.572727 132.169091 
z
" clip-path="url(#pbd7c02784c)" style="fill: none; stroke-dasharray: 5.55,2.4; stroke-dashoffset: 0; stroke: #9467bd; stroke-width: 1.5; stroke-linejoin: miter"/>
   </g>
   <g id="patch_5">
    <path d="M 135.409091 82.750909 
L 184.827273 82.750909 
L 184.827273 33.332727 
L 135.409091 33.332727 
L 135.409091 82.750909 
z
" clip-path="url(#pbd7c02784c)" style="fill: none; stroke-dasharray: 5.55,2.4; stroke-dashoffset: 0; stroke: #9467bd; stroke-width: 1.5; stroke-linejoin: miter"/>
   </g>
   <g id="patch_6">
    <path d="M 135.409091 132.169091 
L 184.827273 132.169091 
L 184.827273 33.332727 
L 135.409091 33.332727 
L 135.409091 132.169091 
z
" clip-path="url(#pbd7c02784c)" style="fill: none; stroke-dasharray: 5.55,2.4; stroke-dashoffset: 0; stroke: #9467bd; stroke-width: 1.5; stroke-linejoin: miter"/>
   </g>
   <g id="matplotlib.axis_1">
    <g id="xtick_1">
     <g id="line2d_1">
      <defs>
       <path id="mdd476deff8" d="M 0 0 
L 0 3.5 
" style="stroke: #000000; stroke-width: 0.8"/>
      </defs>
      <g>
       <use xlink:href="#mdd476deff8" x="36.572727" y="189" style="stroke: #000000; stroke-width: 0.8"/>
      </g>
     </g>
     <g id="text_1">
      <!-- 0 -->
      <g transform="translate(33.572727 204.3325)scale(0.12 -0.12)">
       <defs>
        <path id="TimesNewRomanPSMT-30" d="M 231 2094 
Q 231 2819 450 3342 
Q 669 3866 1031 4122 
Q 1313 4325 1613 4325 
Q 2100 4325 2488 3828 
Q 2972 3213 2972 2159 
Q 2972 1422 2759 906 
Q 2547 391 2217 158 
Q 1888 -75 1581 -75 
Q 975 -75 572 641 
Q 231 1244 231 2094 
z
M 844 2016 
Q 844 1141 1059 588 
Q 1238 122 1591 122 
Q 1759 122 1940 273 
Q 2122 425 2216 781 
Q 2359 1319 2359 2297 
Q 2359 3022 2209 3506 
Q 2097 3866 1919 4016 
Q 1791 4119 1609 4119 
Q 1397 4119 1231 3928 
Q 1006 3669 925 3112 
Q 844 2556 844 2016 
z
" transform="scale(0.015625)"/>
       </defs>
       <use xlink:href="#TimesNewRomanPSMT-30"/>
      </g>
     </g>
    </g>
    <g id="xtick_2">
     <g id="line2d_2">
      <g>
       <use xlink:href="#mdd476deff8" x="85.990909" y="189" style="stroke: #000000; stroke-width: 0.8"/>
      </g>
     </g>
     <g id="text_2">
      <!-- 1 -->
      <g transform="translate(82.990909 204.3325)scale(0.12 -0.12)">
       <defs>
        <path id="TimesNewRomanPSMT-31" d="M 750 3822 
L 1781 4325 
L 1884 4325 
L 1884 747 
Q 1884 391 1914 303 
Q 1944 216 2037 169 
Q 2131 122 2419 116 
L 2419 0 
L 825 0 
L 825 116 
Q 1125 122 1212 167 
Q 1300 213 1334 289 
Q 1369 366 1369 747 
L 1369 3034 
Q 1369 3497 1338 3628 
Q 1316 3728 1258 3775 
Q 1200 3822 1119 3822 
Q 1003 3822 797 3725 
L 750 3822 
z
" transform="scale(0.015625)"/>
       </defs>
       <use xlink:href="#TimesNewRomanPSMT-31"/>
      </g>
     </g>
    </g>
    <g id="xtick_3">
     <g id="line2d_3">
      <g>
       <use xlink:href="#mdd476deff8" x="135.409091" y="189" style="stroke: #000000; stroke-width: 0.8"/>
      </g>
     </g>
     <g id="text_3">
      <!-- 2 -->
      <g transform="translate(132.409091 204.3325)scale(0.12 -0.12)">
       <defs>
        <path id="TimesNewRomanPSMT-32" d="M 2934 816 
L 2638 0 
L 138 0 
L 138 116 
Q 1241 1122 1691 1759 
Q 2141 2397 2141 2925 
Q 2141 3328 1894 3587 
Q 1647 3847 1303 3847 
Q 991 3847 742 3664 
Q 494 3481 375 3128 
L 259 3128 
Q 338 3706 661 4015 
Q 984 4325 1469 4325 
Q 1984 4325 2329 3994 
Q 2675 3663 2675 3213 
Q 2675 2891 2525 2569 
Q 2294 2063 1775 1497 
Q 997 647 803 472 
L 1909 472 
Q 2247 472 2383 497 
Q 2519 522 2628 598 
Q 2738 675 2819 816 
L 2934 816 
z
" transform="scale(0.015625)"/>
       </defs>
       <use xlink:href="#TimesNewRomanPSMT-32"/>
      </g>
     </g>
    </g>
    <g id="xtick_4">
     <g id="line2d_4">
      <g>
       <use xlink:href="#mdd476deff8" x="184.827273" y="189" style="stroke: #000000; stroke-width: 0.8"/>
      </g>
     </g>
     <g id="text_4">
      <!-- 3 -->
      <g transform="translate(181.827273 204.3325)scale(0.12 -0.12)">
       <defs>
        <path id="TimesNewRomanPSMT-33" d="M 325 3431 
Q 506 3859 782 4092 
Q 1059 4325 1472 4325 
Q 1981 4325 2253 3994 
Q 2459 3747 2459 3466 
Q 2459 3003 1878 2509 
Q 2269 2356 2469 2072 
Q 2669 1788 2669 1403 
Q 2669 853 2319 450 
Q 1863 -75 997 -75 
Q 569 -75 414 31 
Q 259 138 259 259 
Q 259 350 332 419 
Q 406 488 509 488 
Q 588 488 669 463 
Q 722 447 909 348 
Q 1097 250 1169 231 
Q 1284 197 1416 197 
Q 1734 197 1970 444 
Q 2206 691 2206 1028 
Q 2206 1275 2097 1509 
Q 2016 1684 1919 1775 
Q 1784 1900 1550 2001 
Q 1316 2103 1072 2103 
L 972 2103 
L 972 2197 
Q 1219 2228 1467 2375 
Q 1716 2522 1828 2728 
Q 1941 2934 1941 3181 
Q 1941 3503 1739 3701 
Q 1538 3900 1238 3900 
Q 753 3900 428 3381 
L 325 3431 
z
" transform="scale(0.015625)"/>
       </defs>
       <use xlink:href="#TimesNewRomanPSMT-33"/>
      </g>
     </g>
    </g>
   </g>
   <g id="matplotlib.axis_2">
    <g id="ytick_1">
     <g id="line2d_5">
      <defs>
       <path id="m271e4173fa" d="M 0 0 
L -3.5 0 
" style="stroke: #000000; stroke-width: 0.8"/>
      </defs>
      <g>
       <use xlink:href="#m271e4173fa" x="29.16" y="181.587273" style="stroke: #000000; stroke-width: 0.8"/>
      </g>
     </g>
     <g id="text_5">
      <!-- 0 -->
      <g transform="translate(16.16 185.753523)scale(0.12 -0.12)">
       <use xlink:href="#TimesNewRomanPSMT-30"/>
      </g>
     </g>
    </g>
    <g id="ytick_2">
     <g id="line2d_6">
      <g>
       <use xlink:href="#m271e4173fa" x="29.16" y="132.169091" style="stroke: #000000; stroke-width: 0.8"/>
      </g>
     </g>
     <g id="text_6">
      <!-- 1 -->
      <g transform="translate(16.16 136.335341)scale(0.12 -0.12)">
       <use xlink:href="#TimesNewRomanPSMT-31"/>
      </g>
     </g>
    </g>
    <g id="ytick_3">
     <g id="line2d_7">
      <g>
       <use xlink:href="#m271e4173fa" x="29.16" y="82.750909" style="stroke: #000000; stroke-width: 0.8"/>
      </g>
     </g>
     <g id="text_7">
      <!-- 2 -->
      <g transform="translate(16.16 86.917159)scale(0.12 -0.12)">
       <use xlink:href="#TimesNewRomanPSMT-32"/>
      </g>
     </g>
    </g>
    <g id="ytick_4">
     <g id="line2d_8">
      <g>
       <use xlink:href="#m271e4173fa" x="29.16" y="33.332727" style="stroke: #000000; stroke-width: 0.8"/>
      </g>
     </g>
     <g id="text_8">
      <!-- 3 -->
      <g transform="translate(16.16 37.498977)scale(0.12 -0.12)">
       <use xlink:href="#TimesNewRomanPSMT-33"/>
      </g>
     </g>
    </g>
   </g>
   <g id="LineCollection_1">
    <path d="M 36.572727 181.587273 
L 85.990909 181.587273 
" clip-path="url(#pbd7c02784c)" style="fill: none; stroke: #7f7f7f; stroke-width: 0.75"/>
   </g>
   <g id="LineCollection_2">
    <path d="M 85.990909 181.587273 
L 85.990909 132.169091 
" clip-path="url(#pbd7c02784c)" style="fill: none; stroke: #7f7f7f; stroke-width: 0.75"/>
   </g>
   <g id="LineCollection_3">
    <path d="M 36.572727 132.169091 
L 85.990909 132.169091 
" clip-path="url(#pbd7c02784c)" style="fill: none; stroke: #7f7f7f; stroke-width: 0.75"/>
   </g>
   <g id="LineCollection_4">
    <path d="M 36.572727 132.169091 
L 36.572727 33.332727 
" clip-path="url(#pbd7c02784c)" style="fill: none; stroke: #7f7f7f; stroke-width: 0.75"/>
   </g>
   <g id="LineCollection_5">
    <path d="M 36.572727 33.332727 
L 85.990909 33.332727 
" clip-path="url(#pbd7c02784c)" style="fill: none; stroke: #7f7f7f; stroke-width: 0.75"/>
   </g>
   <g id="LineCollection_6">
    <path d="M 85.990909 82.750909 
L 85.990909 33.332727 
" clip-path="url(#pbd7c02784c)" style="fill: none; stroke: #7f7f7f; stroke-width: 0.75"/>
   </g>
   <g id="LineCollection_7">
    <path d="M 85.990909 82.750909 
L 135.409091 82.750909 
" clip-path="url(#pbd7c02784c)" style="fill: none; stroke: #7f7f7f; stroke-width: 0.75"/>
   </g>
   <g id="LineCollection_8">
    <path d="M 135.409091 82.750909 
L 135.409091 33.332727 
" clip-path="url(#pbd7c02784c)" style="fill: none; stroke: #7f7f7f; stroke-width: 0.75"/>
   </g>
   <g id="LineCollection_9">
    <path d="M 135.409091 33.332727 
L 184.827273 33.332727 
" clip-path="url(#pbd7c02784c)" style="fill: none; stroke: #7f7f7f; stroke-width: 0.75"/>
   </g>
   <g id="LineCollection_10">
    <path d="M 184.827273 132.169091 
L 184.827273 33.332727 
" clip-path="url(#pbd7c02784c)" style="fill: none; stroke: #7f7f7f; stroke-width: 0.75"/>
   </g>
   <g id="LineCollection_11">
    <path d="M 135.409091 132.169091 
L 184.827273 132.169091 
" clip-path="url(#pbd7c02784c)" style="fill: none; stroke: #7f7f7f; stroke-width: 0.75"/>
   </g>
   <g id="LineCollection_12">
    <path d="M 135.409091 181.587273 
L 135.409091 132.169091 
" clip-path="url(#pbd7c02784c)" style="fill: none; stroke: #7f7f7f; stroke-width: 0.75"/>
   </g>
   <g id="LineCollection_13">
    <path d="M 135.409091 181.587273 
L 184.827273 181.587273 
" clip-path="url(#pbd7c02784c)" style="fill: none; stroke: #7f7f7f; stroke-width: 0.75"/>
   </g>
   <g id="patch_7">
    <path d="M 29.16 189 
L 29.16 25.92 
" style="fill: none; stroke: #000000; stroke-width: 0.8; stroke-linejoin: miter; stroke-linecap: square"/>
   </g>
   <g id="patch_8">
    <path d="M 192.24 189 
L 192.24 25.92 
" style="fill: none; stroke: #000000; stroke-width: 0.8; stroke-linejoin: miter; stroke-linecap: square"/>
   </g>
   <g id="patch_9">
    <path d="M 29.16 189 
L 192.24 189 
" style="fill: none; stroke: #000000; stroke-width: 0.8; stroke-linejoin: miter; stroke-linecap: square"/>
   </g>
   <g id="patch_10">
    <path d="M 29.16 25.92 
L 192.24 25.92 
" style="fill: none; stroke: #000000; stroke-width: 0.8; stroke-linejoin: miter; stroke-linecap: square"/>
   </g>
  </g>
 </g>
 <defs>
  <clipPath id="pbd7c02784c">
   <rect x="29.16" y="25.92" width="163.08" height="163.08"/>
  </clipPath>
 </defs>
</svg>
